<?xml version="1.0" encoding="UTF-8" standalone="no"?>
<!DOCTYPE svg PUBLIC "-//W3C//DTD SVG 1.1//EN" "http://www.w3.org/Graphics/SVG/1.1/DTD/svg11.dtd">
<svg width="100%" height="100%" viewBox="0 0 6945 2124" version="1.1" xmlns="http://www.w3.org/2000/svg" xmlns:xlink="http://www.w3.org/1999/xlink" xml:space="preserve" xmlns:serif="http://www.serif.com/" style="fill-rule:evenodd;clip-rule:evenodd;stroke-linejoin:round;stroke-miterlimit:2;">
    <g id="Mesa-de-trabajo1" serif:id="Mesa de trabajo1" transform="matrix(1.336091,0,0,0.418193,2458.40708,822.166568)">
        <rect x="-1840" y="-1966" width="5198" height="5079" style="fill:none;"/>
        <g transform="matrix(15.735055,0,0,50.272206,-18220.448778,-17883.522192)">
            <g transform="matrix(1,0,0,1,1065.9418,355.2309)">
                <path d="M0,13.571C-0.078,13.793 -0.235,13.904 -0.471,13.904L-10.708,13.904C-10.76,13.904 -10.799,13.885 -10.825,13.846C-10.838,13.793 -10.845,13.721 -10.845,13.63C-10.845,13.434 -10.799,13.336 -10.708,13.336L-10.394,13.336C-9.792,13.336 -9.361,13.251 -9.099,13.081C-8.838,12.898 -8.707,12.577 -8.707,12.12L-8.707,1.452C-8.707,0.994 -8.844,0.674 -9.119,0.491C-9.394,0.308 -9.818,0.216 -10.394,0.216L-10.708,0.216C-10.799,0.216 -10.845,0.125 -10.845,-0.058C-10.845,-0.241 -10.799,-0.333 -10.708,-0.333L-5.138,-0.333C-5.073,-0.333 -5.033,-0.307 -5.02,-0.254C-4.994,-0.215 -4.981,-0.15 -4.981,-0.058C-4.981,0.125 -5.033,0.216 -5.138,0.216L-5.432,0.216C-6.021,0.216 -6.452,0.314 -6.727,0.51C-7.001,0.693 -7.138,1.007 -7.138,1.452L-7.138,12.12C-7.138,12.564 -7.008,12.872 -6.746,13.042C-6.472,13.198 -6.034,13.29 -5.432,13.316L-4.981,13.336L-4.197,13.316C-3.046,13.29 -2.111,13.028 -1.392,12.532C-0.673,12.022 -0.013,11.342 0.588,10.492C0.628,10.427 0.68,10.394 0.745,10.394C0.784,10.394 0.843,10.414 0.922,10.453C1.026,10.505 1.078,10.571 1.078,10.649L1.059,10.747L0,13.571Z" style="fill-rule:nonzero;"/>
            </g>
            <g transform="matrix(1,0,0,1,1075.8239,360.9184)">
                <path d="M0,1.863C-0.026,1.941 -0.039,2 -0.039,2.039C-0.039,2.131 -0.007,2.203 0.059,2.255C0.124,2.308 0.216,2.334 0.333,2.334L4.216,2.334C4.465,2.334 4.589,2.229 4.589,2.02L4.55,1.863L2.589,-3.785C2.536,-3.968 2.471,-4.105 2.392,-4.197C2.314,-4.288 2.262,-4.301 2.235,-4.236C1.503,-2.314 0.758,-0.281 0,1.863M9.844,7.668C9.897,7.668 9.929,7.701 9.943,7.766C9.955,7.818 9.962,7.877 9.962,7.942C9.962,8.125 9.923,8.217 9.844,8.217L4.275,8.217C4.223,8.217 4.183,8.197 4.157,8.158C4.144,8.106 4.138,8.034 4.138,7.942C4.138,7.851 4.144,7.785 4.157,7.746C4.183,7.694 4.223,7.668 4.275,7.668C4.772,7.668 5.203,7.596 5.569,7.452C5.935,7.295 6.118,7.021 6.118,6.628C6.118,6.472 6.092,6.321 6.04,6.177L5.079,3.412C5,3.19 4.844,3.079 4.608,3.079L-0.098,3.079C-0.333,3.079 -0.49,3.19 -0.569,3.412L-0.902,4.334L-1.334,5.589C-1.451,5.916 -1.51,6.203 -1.51,6.452C-1.51,7.262 -0.889,7.668 0.353,7.668C0.405,7.668 0.438,7.701 0.451,7.766C0.464,7.818 0.47,7.877 0.47,7.942C0.47,8.125 0.431,8.217 0.353,8.217L-4.471,8.217C-4.524,8.217 -4.563,8.197 -4.589,8.158C-4.602,8.106 -4.609,8.034 -4.609,7.942C-4.609,7.851 -4.602,7.785 -4.589,7.746C-4.563,7.694 -4.524,7.668 -4.471,7.668C-4.092,7.668 -3.706,7.531 -3.314,7.256C-2.922,6.981 -2.602,6.53 -2.353,5.903L2.059,-5.805C2.137,-6.001 2.275,-6.132 2.471,-6.197L2.804,-6.295C2.909,-6.334 3,-6.354 3.079,-6.354C3.157,-6.354 3.209,-6.341 3.236,-6.315C3.301,-6.275 3.34,-6.23 3.353,-6.177L4.02,-4.236C4.465,-2.968 5.131,-1.046 6.02,1.53C6.922,4.105 7.452,5.589 7.609,5.981C8.027,7.106 8.772,7.668 9.844,7.668" style="fill-rule:nonzero;"/>
            </g>
            <g transform="matrix(1,0,0,1,1102.3085,359.212)">
                <path d="M0,7.923C0,8.145 0.118,8.387 0.353,8.649C0.601,8.897 0.928,9.113 1.333,9.296C1.739,9.466 2.17,9.551 2.628,9.551C3.007,9.551 3.38,9.492 3.746,9.374C3.929,9.309 4.02,9.198 4.02,9.041C4.02,9.002 4.007,8.93 3.981,8.825C3.615,7.91 3.236,7.289 2.844,6.962C2.451,6.635 2.02,6.472 1.549,6.472C1.065,6.472 0.686,6.629 0.412,6.942C0.137,7.243 0,7.57 0,7.923M-1,7.06C-0.922,7.204 -0.837,7.276 -0.745,7.276C-0.615,7.276 -0.51,7.184 -0.432,7.001C-0.235,6.635 0.033,6.348 0.373,6.138C0.725,5.916 1.137,5.805 1.608,5.805C2.876,5.805 4,6.57 4.981,8.099C5.059,8.243 5.164,8.315 5.295,8.315C5.399,8.315 5.491,8.269 5.569,8.178C6.079,7.603 6.478,6.871 6.766,5.981C7.053,5.079 7.197,4.034 7.197,2.844C7.197,1.419 6.975,0.203 6.53,-0.804C6.099,-1.81 5.53,-2.562 4.824,-3.059C4.131,-3.569 3.399,-3.824 2.628,-3.824C1.843,-3.824 1.098,-3.569 0.392,-3.059C-0.301,-2.562 -0.869,-1.81 -1.314,-0.804C-1.745,0.203 -1.961,1.419 -1.961,2.844C-1.961,4.504 -1.641,5.91 -1,7.06M9.55,10.825C9.616,10.891 9.648,10.95 9.648,11.002C9.648,11.054 9.616,11.113 9.55,11.178C8.714,12.015 7.903,12.433 7.119,12.433C6.478,12.433 5.955,12.25 5.55,11.884C5.158,11.518 4.811,10.982 4.51,10.276C4.432,10.093 4.321,10.002 4.177,10.002C4.099,10.002 4.04,10.008 4,10.021C3.53,10.139 3.072,10.198 2.628,10.198C1.608,10.198 0.601,9.917 -0.392,9.355C-1.373,8.779 -2.183,7.936 -2.824,6.825C-3.465,5.714 -3.785,4.387 -3.785,2.844C-3.785,1.301 -3.465,-0.026 -2.824,-1.137C-2.183,-2.248 -1.373,-3.085 -0.392,-3.647C0.601,-4.222 1.608,-4.51 2.628,-4.51C3.647,-4.51 4.648,-4.222 5.628,-3.647C6.609,-3.085 7.419,-2.248 8.06,-1.137C8.7,-0.026 9.021,1.301 9.021,2.844C9.021,4.269 8.746,5.511 8.197,6.57C7.661,7.629 6.942,8.472 6.04,9.1C5.896,9.178 5.824,9.283 5.824,9.413C5.824,9.479 5.857,9.564 5.922,9.668C6.628,10.649 7.393,11.139 8.217,11.139C8.413,11.139 8.576,11.113 8.707,11.061C8.851,11.008 9.008,10.923 9.178,10.806C9.256,10.754 9.322,10.727 9.374,10.727C9.426,10.727 9.485,10.76 9.55,10.825" style="fill-rule:nonzero;"/>
            </g>
            <g transform="matrix(1,0,0,1,1124.4646,354.8978)">
                <path d="M0,14.512C-1.673,14.512 -2.961,14.1 -3.863,13.277C-4.765,12.44 -5.217,11.329 -5.217,9.943L-5.217,1.765C-5.217,1.308 -5.354,0.994 -5.628,0.824C-5.89,0.641 -6.315,0.549 -6.903,0.549L-7.197,0.549C-7.289,0.549 -7.334,0.458 -7.334,0.275C-7.334,0.092 -7.289,0 -7.197,0L-1.667,0C-1.602,0 -1.562,0.026 -1.549,0.079C-1.523,0.118 -1.51,0.183 -1.51,0.275C-1.51,0.458 -1.562,0.549 -1.667,0.549L-1.961,0.549C-2.549,0.549 -2.981,0.641 -3.255,0.824C-3.53,0.994 -3.667,1.308 -3.667,1.765L-3.667,6.825C-3.654,7.727 -3.648,8.309 -3.648,8.57L-3.648,9.08C-3.648,10.374 -3.399,11.479 -2.902,12.394C-2.406,13.309 -1.438,13.767 0,13.767C1.556,13.767 2.608,13.335 3.157,12.473C3.719,11.61 4.001,10.479 4.001,9.08L4.001,2.118C4.001,1.674 3.817,1.301 3.451,1C3.085,0.7 2.706,0.549 2.314,0.549L2.02,0.549C1.928,0.549 1.883,0.458 1.883,0.275C1.883,0.092 1.928,0 2.02,0L6.785,0C6.851,0 6.89,0.026 6.903,0.079C6.929,0.118 6.942,0.183 6.942,0.275C6.942,0.458 6.89,0.549 6.785,0.549L6.491,0.549C6.099,0.549 5.72,0.7 5.354,1C4.988,1.301 4.805,1.674 4.805,2.118L4.765,9.649C4.765,11.139 4.354,12.322 3.53,13.198C2.706,14.074 1.53,14.512 0,14.512" style="fill-rule:nonzero;"/>
            </g>
            <g transform="matrix(1,0,0,1,1136.5531,354.8982)">
                <path d="M0,14.237C-0.092,14.237 -0.137,14.146 -0.137,13.963C-0.137,13.779 -0.092,13.688 0,13.688L0.314,13.688C0.902,13.688 1.327,13.596 1.588,13.413C1.863,13.217 2,12.904 2,12.472L2,1.784C2,1.327 1.863,1.007 1.588,0.823C1.314,0.64 0.889,0.549 0.314,0.549L0,0.549C-0.092,0.549 -0.137,0.457 -0.137,0.274C-0.137,0.091 -0.092,0 0,0L5.55,0C5.615,0 5.654,0.026 5.667,0.078C5.694,0.118 5.707,0.183 5.707,0.274C5.707,0.457 5.654,0.549 5.55,0.549L5.256,0.549C4.641,0.549 4.203,0.64 3.942,0.823C3.693,1.007 3.569,1.327 3.569,1.784L3.569,12.472C3.569,12.93 3.7,13.25 3.961,13.433C4.223,13.603 4.654,13.688 5.256,13.688L5.55,13.688C5.615,13.688 5.654,13.714 5.667,13.766C5.694,13.806 5.707,13.871 5.707,13.963C5.707,14.146 5.654,14.237 5.55,14.237L0,14.237Z" style="fill-rule:nonzero;"/>
            </g>
            <g transform="matrix(1,0,0,1,1147.5585,354.8982)">
                <path d="M0,14.237C-0.078,14.237 -0.118,14.139 -0.118,13.943C-0.118,13.773 -0.078,13.688 0,13.688L0.314,13.688C0.732,13.688 1.111,13.538 1.451,13.237C1.804,12.936 1.981,12.564 1.981,12.119L1.981,1.765C1.981,1.32 1.85,1.007 1.589,0.823C1.327,0.64 0.902,0.549 0.314,0.549L0,0.549C-0.091,0.549 -0.137,0.457 -0.137,0.274C-0.137,0.091 -0.091,0 0,0L3.157,0C3.367,0 3.53,0.085 3.648,0.255L10.825,10.393C10.917,10.524 11.008,10.59 11.1,10.59C11.257,10.59 11.335,10.472 11.335,10.237L11.335,2.118C11.335,1.83 11.243,1.569 11.061,1.333C10.891,1.085 10.668,0.895 10.394,0.765C10.132,0.621 9.877,0.549 9.629,0.549L9.335,0.549C9.269,0.549 9.224,0.529 9.198,0.49C9.184,0.438 9.178,0.366 9.178,0.274C9.178,0.091 9.23,0 9.335,0L14.08,0C14.146,0 14.185,0.026 14.198,0.078C14.224,0.118 14.237,0.183 14.237,0.274C14.237,0.457 14.185,0.549 14.08,0.549L13.767,0.549C13.348,0.549 12.963,0.706 12.61,1.019C12.27,1.32 12.1,1.686 12.1,2.118L12.1,13.825C12.1,13.956 12.074,14.061 12.021,14.139C11.982,14.204 11.93,14.237 11.865,14.237C11.708,14.237 11.57,14.152 11.453,13.982L3.275,2.314C3.183,2.183 3.092,2.118 3.001,2.118C2.844,2.118 2.765,2.236 2.765,2.471L2.765,12.119C2.765,12.564 2.948,12.936 3.314,13.237C3.68,13.538 4.066,13.688 4.471,13.688L4.785,13.688C4.877,13.688 4.922,13.773 4.922,13.943C4.922,14.139 4.877,14.237 4.785,14.237L0,14.237Z" style="fill-rule:nonzero;"/>
            </g>
            <g transform="matrix(1,0,0,1,1170.4479,354.8982)">
                <path d="M0,14.237C-0.078,14.237 -0.118,14.139 -0.118,13.943C-0.118,13.773 -0.078,13.688 0,13.688L0.294,13.688C0.883,13.688 1.314,13.596 1.589,13.413C1.863,13.217 2,12.897 2,12.453L2,1.784C2,1.288 1.87,0.961 1.608,0.804C1.36,0.634 0.987,0.549 0.49,0.549C0.294,0.549 0.131,0.555 0,0.569C-0.536,0.595 -1.151,0.817 -1.843,1.235C-2.523,1.641 -3.072,2.124 -3.491,2.686C-3.569,2.778 -3.641,2.824 -3.706,2.824C-3.746,2.824 -3.791,2.811 -3.844,2.785C-3.974,2.732 -4.04,2.673 -4.04,2.608L-4.02,2.51L-3.196,0.314C-3.118,0.104 -2.961,0 -2.726,0L8.276,0C8.511,0 8.668,0.104 8.746,0.314L9.57,2.51L9.59,2.608C9.59,2.673 9.524,2.732 9.394,2.785C9.341,2.811 9.295,2.824 9.256,2.824C9.191,2.824 9.119,2.778 9.041,2.686C8.622,2.124 8.067,1.641 7.374,1.235C6.694,0.817 6.086,0.595 5.55,0.569C5.432,0.555 5.269,0.549 5.06,0.549C4.55,0.549 4.171,0.634 3.922,0.804C3.674,0.974 3.55,1.301 3.55,1.784L3.55,12.453C3.55,12.91 3.687,13.23 3.961,13.413C4.249,13.596 4.68,13.688 5.256,13.688L5.55,13.688C5.641,13.688 5.687,13.773 5.687,13.943C5.687,14.139 5.641,14.237 5.55,14.237L0,14.237Z" style="fill-rule:nonzero;"/>
            </g>
            <g transform="matrix(1,0,0,1,1188.2184,360.9184)">
                <path d="M0,1.863C-0.026,1.941 -0.039,2 -0.039,2.039C-0.039,2.131 -0.007,2.203 0.059,2.255C0.124,2.308 0.216,2.334 0.333,2.334L4.216,2.334C4.465,2.334 4.589,2.229 4.589,2.02L4.55,1.863L2.589,-3.785C2.536,-3.968 2.471,-4.105 2.392,-4.197C2.314,-4.288 2.262,-4.301 2.236,-4.236C1.503,-2.314 0.758,-0.281 0,1.863M9.844,7.668C9.897,7.668 9.929,7.701 9.943,7.766C9.956,7.818 9.962,7.877 9.962,7.942C9.962,8.125 9.923,8.217 9.844,8.217L4.275,8.217C4.223,8.217 4.184,8.197 4.157,8.158C4.144,8.106 4.138,8.034 4.138,7.942C4.138,7.851 4.144,7.785 4.157,7.746C4.184,7.694 4.223,7.668 4.275,7.668C4.772,7.668 5.203,7.596 5.569,7.452C5.935,7.295 6.118,7.021 6.118,6.628C6.118,6.472 6.092,6.321 6.04,6.177L5.079,3.412C5.001,3.19 4.844,3.079 4.608,3.079L-0.098,3.079C-0.333,3.079 -0.49,3.19 -0.569,3.412L-0.902,4.334L-1.334,5.589C-1.451,5.916 -1.51,6.203 -1.51,6.452C-1.51,7.262 -0.889,7.668 0.353,7.668C0.405,7.668 0.438,7.701 0.451,7.766C0.464,7.818 0.471,7.877 0.471,7.942C0.471,8.125 0.431,8.217 0.353,8.217L-4.471,8.217C-4.524,8.217 -4.563,8.197 -4.589,8.158C-4.602,8.106 -4.609,8.034 -4.609,7.942C-4.609,7.851 -4.602,7.785 -4.589,7.746C-4.563,7.694 -4.524,7.668 -4.471,7.668C-4.092,7.668 -3.706,7.531 -3.314,7.256C-2.922,6.981 -2.602,6.53 -2.353,5.903L2.059,-5.805C2.137,-6.001 2.275,-6.132 2.471,-6.197L2.804,-6.295C2.909,-6.334 3,-6.354 3.079,-6.354C3.157,-6.354 3.21,-6.341 3.236,-6.315C3.301,-6.275 3.34,-6.23 3.354,-6.177L4.02,-4.236C4.465,-2.968 5.131,-1.046 6.021,1.53C6.922,4.105 7.452,5.589 7.609,5.981C8.027,7.106 8.772,7.668 9.844,7.668" style="fill-rule:nonzero;"/>
            </g>
            <g transform="matrix(1,0,0,1,1216.4292,355.4859)">
                <path d="M0,13.061C0.757,13.061 1.561,12.878 2.411,12.512C3.274,12.146 4.026,11.479 4.666,10.512C5.32,9.531 5.648,8.204 5.648,6.531C5.648,4.844 5.32,3.517 4.666,2.55C4.026,1.569 3.274,0.902 2.411,0.55C1.561,0.183 0.757,0.001 0,0.001L-0.157,0.001C-0.759,0.001 -1.191,0.092 -1.452,0.275C-1.7,0.458 -1.824,0.778 -1.824,1.236L-1.824,11.845C-1.824,12.29 -1.7,12.603 -1.452,12.787C-1.191,12.97 -0.759,13.061 -0.157,13.061L0,13.061ZM-5.393,13.649C-5.498,13.649 -5.55,13.558 -5.55,13.375C-5.55,13.192 -5.498,13.1 -5.393,13.1L-5.08,13.1C-4.491,13.1 -4.066,13.015 -3.805,12.845C-3.543,12.662 -3.413,12.342 -3.413,11.884L-3.413,1.197C-3.413,0.726 -3.543,0.406 -3.805,0.236C-4.066,0.053 -4.491,-0.039 -5.08,-0.039L-5.393,-0.039C-5.485,-0.039 -5.531,-0.13 -5.531,-0.313L-5.531,-0.411C-5.518,-0.49 -5.485,-0.536 -5.432,-0.549C-5.367,-0.575 -5.276,-0.588 -5.158,-0.588C-4.923,-0.601 -4.269,-0.608 -3.197,-0.608C-1.785,-0.608 -0.594,-0.588 0.372,-0.549C1.615,-0.496 2.765,-0.228 3.824,0.255C4.896,0.739 5.764,1.504 6.431,2.55C7.112,3.583 7.451,4.91 7.451,6.531C7.451,8.139 7.112,9.466 6.431,10.512C5.764,11.544 4.896,12.309 3.824,12.806C2.765,13.29 1.615,13.558 0.372,13.61C-0.491,13.649 -1.569,13.669 -2.864,13.669L-5.393,13.649Z" style="fill-rule:nonzero;"/>
            </g>
            <g transform="matrix(1,0,0,1,1241.3773,358.3692)">
                <path d="M0,7.295C0.119,7.334 0.178,7.413 0.178,7.53C0.178,7.57 0.144,7.674 0.08,7.844C-0.352,8.929 -0.68,9.792 -0.902,10.433C-0.98,10.655 -1.137,10.766 -1.372,10.766L-11.903,10.766C-11.995,10.766 -12.04,10.675 -12.04,10.492C-12.04,10.308 -11.995,10.217 -11.903,10.217L-11.59,10.217C-11.001,10.217 -10.577,10.126 -10.314,9.942C-10.04,9.746 -9.903,9.426 -9.903,8.982L-9.903,-1.687C-9.903,-2.144 -10.047,-2.464 -10.334,-2.648C-10.609,-2.831 -11.027,-2.922 -11.59,-2.922L-11.903,-2.922C-11.995,-2.922 -12.04,-3.014 -12.04,-3.197C-12.04,-3.38 -11.995,-3.471 -11.903,-3.471L-1.961,-3.471C-1.726,-3.471 -1.561,-3.373 -1.47,-3.177C-1.248,-2.798 -1.039,-2.425 -0.843,-2.059C-0.646,-1.693 -0.504,-1.425 -0.411,-1.255C-0.398,-1.229 -0.393,-1.196 -0.393,-1.157C-0.393,-1.092 -0.444,-1.026 -0.548,-0.961C-0.587,-0.935 -0.641,-0.922 -0.706,-0.922C-0.783,-0.922 -0.85,-0.948 -0.902,-1C-1.478,-1.575 -2.176,-2.033 -3,-2.373C-3.824,-2.726 -4.713,-2.902 -5.666,-2.902L-6.157,-2.902C-6.694,-2.902 -7.105,-2.876 -7.392,-2.824C-7.681,-2.785 -7.909,-2.68 -8.079,-2.51C-8.249,-2.34 -8.335,-2.066 -8.335,-1.687L-8.335,2.647C-8.335,2.778 -8.301,2.883 -8.236,2.961C-8.157,3.026 -8.053,3.059 -7.922,3.059L-6.57,3.059C-5.772,3.059 -5.248,3.053 -5,3.04C-4.452,3.026 -4.026,2.843 -3.726,2.49C-3.411,2.137 -3.255,1.693 -3.255,1.157C-3.255,1.065 -3.17,1.02 -3,1.02C-2.909,1.02 -2.842,1.033 -2.803,1.059C-2.752,1.072 -2.726,1.105 -2.726,1.157L-2.726,5.648C-2.726,5.752 -2.816,5.805 -3,5.805C-3.17,5.805 -3.255,5.752 -3.255,5.648C-3.255,5.112 -3.411,4.667 -3.726,4.314C-4.026,3.961 -4.452,3.778 -5,3.765C-5.248,3.752 -5.772,3.745 -6.57,3.745L-7.922,3.745C-8.053,3.745 -8.157,3.785 -8.236,3.863C-8.301,3.929 -8.335,4.027 -8.335,4.157L-8.335,8.982C-8.335,9.426 -8.198,9.733 -7.922,9.903C-7.648,10.073 -7.224,10.171 -6.648,10.197C-6.477,10.211 -6.183,10.217 -5.764,10.217C-5.451,10.217 -5.222,10.211 -5.079,10.197C-4.268,10.132 -3.576,9.962 -3,9.688C-2.424,9.413 -1.954,9.099 -1.589,8.746C-1.209,8.38 -0.791,7.91 -0.333,7.334C-0.294,7.282 -0.241,7.256 -0.176,7.256C-0.137,7.256 -0.078,7.269 0,7.295" style="fill-rule:nonzero;"/>
            </g>
            <g transform="matrix(1,0,0,1,1257.4335,355.2309)">
                <path d="M0,13.571C-0.078,13.793 -0.235,13.904 -0.47,13.904L-10.707,13.904C-10.76,13.904 -10.799,13.885 -10.825,13.846C-10.838,13.793 -10.845,13.721 -10.845,13.63C-10.845,13.434 -10.799,13.336 -10.707,13.336L-10.394,13.336C-9.792,13.336 -9.36,13.251 -9.099,13.081C-8.838,12.898 -8.707,12.577 -8.707,12.12L-8.707,1.452C-8.707,0.994 -8.844,0.674 -9.12,0.491C-9.394,0.308 -9.818,0.216 -10.394,0.216L-10.707,0.216C-10.799,0.216 -10.845,0.125 -10.845,-0.058C-10.845,-0.241 -10.799,-0.333 -10.707,-0.333L-5.139,-0.333C-5.072,-0.333 -5.033,-0.307 -5.02,-0.254C-4.994,-0.215 -4.981,-0.15 -4.981,-0.058C-4.981,0.125 -5.033,0.216 -5.139,0.216L-5.433,0.216C-6.02,0.216 -6.451,0.314 -6.727,0.51C-7.001,0.693 -7.138,1.007 -7.138,1.452L-7.138,12.12C-7.138,12.564 -7.007,12.872 -6.746,13.042C-6.472,13.198 -6.033,13.29 -5.433,13.316L-4.981,13.336L-4.196,13.316C-3.046,13.29 -2.111,13.028 -1.392,12.532C-0.674,12.022 -0.013,11.342 0.589,10.492C0.628,10.427 0.68,10.394 0.744,10.394C0.785,10.394 0.843,10.414 0.922,10.453C1.026,10.505 1.08,10.571 1.08,10.649L1.059,10.747L0,13.571Z" style="fill-rule:nonzero;"/>
            </g>
            <g transform="matrix(1,0,0,1,1278.5874,354.7218)">
                <path d="M0,14.688C-0.954,14.688 -1.948,14.433 -2.979,13.923C-4.013,13.4 -4.883,12.609 -5.588,11.55C-6.294,10.491 -6.648,9.197 -6.648,7.667C-6.648,6.177 -6.333,4.85 -5.707,3.686C-5.079,2.523 -4.274,1.621 -3.294,0.98C-2.313,0.327 -1.313,0 -0.294,0C0.137,0 0.524,0.045 0.863,0.137C1.204,0.229 1.596,0.353 2.041,0.51C2.209,0.575 2.374,0.634 2.529,0.686C2.7,0.738 2.837,0.765 2.942,0.765C3.203,0.765 3.472,0.686 3.746,0.529C3.852,0.464 3.935,0.431 4.002,0.431C4.105,0.431 4.177,0.51 4.216,0.667L4.883,3.412L4.924,3.628L4.924,3.667C4.909,3.758 4.87,3.817 4.805,3.843C4.74,3.87 4.707,3.883 4.707,3.883L4.648,3.883C4.57,3.883 4.492,3.837 4.413,3.745C4.348,3.654 4.139,3.327 3.785,2.765C3.433,2.203 2.909,1.725 2.217,1.333C1.537,0.941 0.746,0.745 -0.156,0.745C-1.463,0.745 -2.47,1.17 -3.176,2.02C-3.87,2.856 -4.327,3.765 -4.55,4.745C-4.759,5.726 -4.863,6.556 -4.863,7.236C-4.863,8.713 -4.601,9.942 -4.079,10.923C-3.542,11.903 -2.883,12.622 -2.098,13.08C-1.3,13.524 -0.504,13.747 0.294,13.747C1.276,13.747 2.113,13.485 2.805,12.962C3.498,12.426 4.157,11.694 4.785,10.766C4.852,10.687 4.909,10.648 4.963,10.648C5.015,10.648 5.079,10.681 5.159,10.746C5.25,10.825 5.296,10.897 5.296,10.962C5.296,10.988 5.283,11.027 5.257,11.08C3.935,13.485 2.183,14.688 0,14.688" style="fill-rule:nonzero;"/>
            </g>
            <g transform="matrix(1,0,0,1,1304.1965,355.4272)">
                <path d="M0,13.159C0.065,13.159 0.104,13.185 0.117,13.237C0.143,13.277 0.156,13.342 0.156,13.434C0.156,13.617 0.104,13.708 0,13.708L-5.551,13.708C-5.642,13.708 -5.688,13.617 -5.688,13.434C-5.688,13.25 -5.642,13.159 -5.551,13.159L-5.237,13.159C-4.648,13.159 -4.224,13.068 -3.963,12.884C-3.687,12.688 -3.55,12.375 -3.55,11.943L-3.55,7.06C-3.55,6.929 -3.589,6.831 -3.668,6.766C-3.733,6.687 -3.831,6.648 -3.963,6.648L-11.021,6.648C-11.153,6.648 -11.256,6.687 -11.336,6.766C-11.401,6.831 -11.434,6.929 -11.434,7.06L-11.434,11.924C-11.434,12.381 -11.303,12.701 -11.042,12.884C-10.781,13.054 -10.349,13.139 -9.747,13.139L-9.453,13.139C-9.388,13.139 -9.349,13.165 -9.334,13.218C-9.308,13.257 -9.296,13.323 -9.296,13.414C-9.296,13.597 -9.349,13.689 -9.453,13.689L-15.003,13.689C-15.095,13.689 -15.14,13.597 -15.14,13.414C-15.14,13.231 -15.095,13.139 -15.003,13.139L-14.69,13.139C-14.101,13.139 -13.677,13.048 -13.414,12.865C-13.14,12.669 -13.003,12.355 -13.003,11.924L-13.003,1.236C-13.003,0.778 -13.14,0.458 -13.414,0.275C-13.69,0.092 -14.114,-0 -14.69,-0L-15.003,-0C-15.095,-0 -15.14,-0.091 -15.14,-0.274C-15.14,-0.457 -15.095,-0.549 -15.003,-0.549L-9.453,-0.549C-9.388,-0.549 -9.349,-0.523 -9.334,-0.47C-9.308,-0.431 -9.296,-0.366 -9.296,-0.274C-9.296,-0.091 -9.349,-0 -9.453,-0L-9.747,-0C-10.362,-0 -10.799,0.092 -11.06,0.275C-11.31,0.458 -11.434,0.778 -11.434,1.236L-11.434,5.491C-11.434,5.622 -11.401,5.727 -11.336,5.805C-11.256,5.87 -11.153,5.903 -11.021,5.903L-3.963,5.903C-3.831,5.903 -3.733,5.87 -3.668,5.805C-3.589,5.727 -3.55,5.622 -3.55,5.491L-3.55,1.255C-3.55,0.798 -3.687,0.478 -3.963,0.294C-4.237,0.111 -4.661,0.02 -5.237,0.02L-5.551,0.02C-5.642,0.02 -5.688,-0.072 -5.688,-0.255C-5.688,-0.438 -5.642,-0.529 -5.551,-0.529L0,-0.529C0.065,-0.529 0.104,-0.503 0.117,-0.451C0.143,-0.411 0.156,-0.346 0.156,-0.255C0.156,-0.072 0.104,0.02 0,0.02L-0.294,0.02C-0.909,0.02 -1.348,0.111 -1.609,0.294C-1.857,0.478 -1.981,0.798 -1.981,1.255L-1.981,11.943C-1.981,12.401 -1.85,12.721 -1.589,12.904C-1.328,13.074 -0.896,13.159 -0.294,13.159L0,13.159Z" style="fill-rule:nonzero;"/>
            </g>
            <g transform="matrix(1,0,0,1,1316.0939,355.3686)">
                <path d="M0,13.394C0.783,13.394 1.522,13.146 2.215,12.649C2.922,12.139 3.49,11.381 3.922,10.374C4.366,9.354 4.589,8.125 4.589,6.687C4.589,5.262 4.366,4.046 3.922,3.04C3.49,2.033 2.922,1.281 2.215,0.784C1.522,0.275 0.783,0.02 0,0.02C-0.785,0.02 -1.53,0.275 -2.237,0.784C-2.942,1.281 -3.511,2.033 -3.942,3.04C-4.374,4.046 -4.59,5.262 -4.59,6.687C-4.59,8.125 -4.374,9.354 -3.942,10.374C-3.511,11.381 -2.942,12.139 -2.237,12.649C-1.53,13.146 -0.785,13.394 0,13.394M0,14.041C-1.02,14.041 -2.028,13.76 -3.02,13.198C-4.002,12.623 -4.813,11.779 -5.453,10.668C-6.094,9.557 -6.414,8.23 -6.414,6.687C-6.414,5.158 -6.094,3.837 -5.453,2.726C-4.813,1.615 -4.002,0.778 -3.02,0.216C-2.028,-0.36 -1.02,-0.647 0,-0.647C1.018,-0.647 2.018,-0.36 3,0.216C3.979,0.778 4.79,1.615 5.431,2.726C6.072,3.837 6.392,5.158 6.392,6.687C6.392,8.23 6.072,9.557 5.431,10.668C4.79,11.779 3.979,12.623 3,13.198C2.018,13.76 1.018,14.041 0,14.041" style="fill-rule:nonzero;"/>
            </g>
            <g transform="matrix(1,0,0,1,1338.7329,355.2309)">
                <path d="M0,13.571C-0.078,13.793 -0.235,13.904 -0.47,13.904L-10.707,13.904C-10.759,13.904 -10.799,13.885 -10.825,13.846C-10.838,13.793 -10.844,13.721 -10.844,13.63C-10.844,13.434 -10.799,13.336 -10.707,13.336L-10.394,13.336C-9.792,13.336 -9.36,13.251 -9.099,13.081C-8.838,12.898 -8.707,12.577 -8.707,12.12L-8.707,1.452C-8.707,0.994 -8.844,0.674 -9.118,0.491C-9.394,0.308 -9.818,0.216 -10.394,0.216L-10.707,0.216C-10.799,0.216 -10.844,0.125 -10.844,-0.058C-10.844,-0.241 -10.799,-0.333 -10.707,-0.333L-5.139,-0.333C-5.072,-0.333 -5.033,-0.307 -5.02,-0.254C-4.994,-0.215 -4.981,-0.15 -4.981,-0.058C-4.981,0.125 -5.033,0.216 -5.139,0.216L-5.431,0.216C-6.02,0.216 -6.451,0.314 -6.725,0.51C-7.001,0.693 -7.138,1.007 -7.138,1.452L-7.138,12.12C-7.138,12.564 -7.007,12.872 -6.746,13.042C-6.472,13.198 -6.033,13.29 -5.431,13.316L-4.981,13.336L-4.196,13.316C-3.046,13.29 -2.111,13.028 -1.393,12.532C-0.672,12.022 -0.013,11.342 0.589,10.492C0.628,10.427 0.68,10.394 0.746,10.394C0.785,10.394 0.844,10.414 0.922,10.453C1.026,10.505 1.079,10.571 1.079,10.649L1.059,10.747L0,13.571Z" style="fill-rule:nonzero;"/>
            </g>
            <g transform="matrix(1,0,0,1,1351.4578,355.3686)">
                <path d="M0,13.394C0.785,13.394 1.524,13.146 2.217,12.649C2.922,12.139 3.492,11.381 3.924,10.374C4.368,9.354 4.59,8.125 4.59,6.687C4.59,5.262 4.368,4.046 3.924,3.04C3.492,2.033 2.922,1.281 2.217,0.784C1.524,0.275 0.785,0.02 0,0.02C-0.783,0.02 -1.529,0.275 -2.235,0.784C-2.94,1.281 -3.509,2.033 -3.94,3.04C-4.372,4.046 -4.589,5.262 -4.589,6.687C-4.589,8.125 -4.372,9.354 -3.94,10.374C-3.509,11.381 -2.94,12.139 -2.235,12.649C-1.529,13.146 -0.783,13.394 0,13.394M0,14.041C-1.018,14.041 -2.026,13.76 -3.018,13.198C-4,12.623 -4.811,11.779 -5.451,10.668C-6.092,9.557 -6.412,8.23 -6.412,6.687C-6.412,5.158 -6.092,3.837 -5.451,2.726C-4.811,1.615 -4,0.778 -3.018,0.216C-2.026,-0.36 -1.018,-0.647 0,-0.647C1.02,-0.647 2.02,-0.36 3.002,0.216C3.981,0.778 4.792,1.615 5.433,2.726C6.074,3.837 6.394,5.158 6.394,6.687C6.394,8.23 6.074,9.557 5.433,10.668C4.792,11.779 3.981,12.623 3.002,13.198C2.02,13.76 1.02,14.041 0,14.041" style="fill-rule:nonzero;"/>
            </g>
            <g transform="matrix(1,0,0,1,1095.3232,378.3491)">
                <path d="M0,3.932C-0.379,3.552 -0.325,3.037 -0.19,2.631C-0.054,2.224 0.217,1.79 0.542,1.383C0.84,1.004 1.22,0.624 1.573,0.326C1.898,0.055 2.25,-0.189 2.576,-0.27C2.793,-0.325 3.01,-0.189 3.064,0.055C3.118,0.272 2.982,0.489 2.766,0.516C2.657,0.543 2.413,0.679 2.088,0.95C1.79,1.194 1.437,1.546 1.166,1.899C0.895,2.251 0.678,2.603 0.597,2.902C0.488,3.2 0.542,3.308 0.569,3.363C0.624,3.417 0.813,3.498 1.274,3.363C1.681,3.281 2.223,3.037 2.793,2.685C3.931,2.034 5.151,1.058 5.856,0.272C6.209,-0.108 6.805,0.38 6.48,0.787C6.344,0.977 5.992,1.411 5.694,1.899C5.368,2.441 5.26,2.847 5.314,3.064C5.368,3.227 5.612,3.254 5.775,3.281C7.673,3.2 9.49,2.007 11.008,1.112C11.198,0.977 11.442,1.058 11.55,1.248C11.686,1.438 11.631,1.682 11.414,1.79C9.95,2.712 7.537,4.176 5.748,4.068C5.26,4.068 4.718,3.878 4.528,3.308C4.474,3.064 4.474,2.82 4.528,2.576L4.528,2.522L4.121,2.82C3.823,3.037 3.498,3.227 3.199,3.39C2.494,3.823 1.6,4.257 0.868,4.257C0.542,4.257 0.217,4.176 0,3.932" style="fill-rule:nonzero;"/>
            </g>
            <g transform="matrix(1,0,0,1,1114.4296,378.7028)">
                <path d="M0,3.768C-1.112,3.768 -2.088,3.768 -2.549,3.578C-3.226,3.28 -3.443,2.846 -3.443,2.358C-3.443,1.68 -3.037,0.948 -2.711,0.487C-4.907,0.704 -7.836,2.06 -9.245,3.172L-9.788,3.795C-10.086,4.148 -10.737,3.822 -10.465,3.388C-10.303,3.172 -10.14,2.9 -9.815,2.575L-7.456,-0.109C-7.32,-0.299 -7.049,-0.299 -6.887,-0.163C-6.724,-0.028 -6.697,0.243 -6.832,0.406L-7.591,1.274C-6.236,0.596 -3.579,-0.38 -2.196,-0.218C-1.654,-0.136 -1.627,0.406 -1.871,0.731C-2.359,1.409 -2.576,1.87 -2.576,2.196C-2.576,2.982 -1.356,2.955 0,2.955C2.223,3.009 6.317,2.792 7.402,2.521C7.619,2.467 7.863,2.602 7.89,2.819C7.944,3.036 7.808,3.253 7.591,3.307C6.426,3.605 3.226,3.768 0.868,3.768L0,3.768Z" style="fill-rule:nonzero;"/>
            </g>
            <g transform="matrix(1,0,0,1,1129.3737,378.5661)">
                <path d="M0,3.959C0.081,3.715 0.569,3.01 3.714,-0.406C3.85,-0.596 4.121,-0.596 4.284,-0.46C4.447,-0.325 4.474,-0.054 4.338,0.109L3.443,1.166C4.663,0.543 7.673,-0.759 8.974,-0.515C9.489,-0.406 9.516,0.109 9.272,0.407C8.893,0.895 7.998,0.895 8.405,0.299L8.486,0.217L8.378,0.217C6.29,0.434 3.552,1.925 2.006,3.01C1.735,3.2 1.437,3.579 0.678,4.366C0.38,4.718 -0.19,4.366 0,3.959" style="fill-rule:nonzero;"/>
            </g>
            <g transform="matrix(1,0,0,1,1143.1409,382.0102)">
                <path d="M0,-3.552C-1.057,-3.688 -2.115,-2.874 -2.792,-2.251C-2.277,-2.034 -0.542,-2.983 0,-3.552M-4.392,-0.027C-4.609,-0.651 -4.392,-1.383 -4.013,-1.98C-3.552,-2.739 -2.766,-3.416 -1.979,-3.85C-1.193,-4.284 -0.271,-4.555 0.434,-4.257L0.651,-4.148C0.922,-3.959 0.976,-3.633 0.868,-3.362C0.515,-2.63 -2.25,-1.003 -3.335,-1.546L-3.443,-1.356C-3.66,-0.922 -3.714,-0.543 -3.633,-0.299C-3.47,0.081 -3.064,0.244 -2.521,0.244C-0.976,0.244 1.654,-0.922 2.142,-1.193C3.362,-1.817 4.474,-2.522 4.853,-2.739C5.07,-2.847 5.314,-2.793 5.422,-2.576C5.531,-2.386 5.45,-2.142 5.26,-2.034C4.962,-1.844 3.823,-1.139 2.549,-0.488C1.573,0 -0.759,1.003 -2.494,1.003C-3.389,1.003 -4.121,0.732 -4.392,-0.027" style="fill-rule:nonzero;"/>
            </g>
            <g transform="matrix(1,0,0,1,1144.6898,372.7373)">
                <path d="M0,18.301C0.841,17.406 1.708,16.024 2.386,14.505C3.037,13.014 3.525,11.442 3.525,10.113C3.525,9.462 3.416,8.893 3.199,8.432L3.037,8.215L2.386,9.3C1.817,10.14 1.301,11.008 0.841,11.902C-0.135,13.611 -0.895,15.237 -1.301,16.62C-1.708,17.84 -1.735,18.681 -1.572,19.142L-1.491,19.25L-1.545,19.223C-1.383,19.386 -0.867,19.277 0,18.301M-2.061,19.874C-2.088,19.874 -2.115,19.846 -2.142,19.819C-2.386,19.467 -2.494,19.006 -2.494,18.491C-2.494,17.84 -2.332,17.135 -2.088,16.376C-1.654,14.939 -0.84,13.231 0.109,11.496C0.596,10.601 1.139,9.733 1.681,8.866L2.467,7.619L2.115,7.402C1.681,7.239 1.925,6.534 2.413,6.67L2.82,6.751L3.037,6.805L3.362,6.29C4.528,4.664 8.622,-0.623 9.598,-1.735C9.733,-1.898 10.005,-1.898 10.167,-1.762C10.33,-1.627 10.357,-1.355 10.194,-1.193C9.245,-0.108 5.179,5.151 4.067,6.751L3.931,6.914L4.04,6.914C4.69,6.995 5.802,7.049 6.751,7.049C7.456,7.049 8.079,7.022 8.378,6.941C8.568,6.887 8.812,6.995 8.866,7.212C8.947,7.429 8.784,7.673 8.568,7.727C8.188,7.836 7.483,7.863 6.697,7.863C5.721,7.863 4.636,7.809 3.931,7.727L3.687,7.7L3.931,8.08C4.229,8.676 4.338,9.381 4.338,10.113C4.311,11.604 3.823,13.285 3.145,14.858C2.413,16.403 1.491,17.867 0.624,18.843C0.19,19.331 -0.271,19.711 -0.705,19.928C-1.112,20.145 -1.627,20.199 -2.061,19.874" style="fill-rule:nonzero;"/>
            </g>
            <g transform="matrix(1,0,0,1,1152.1693,378.3491)">
                <path d="M0,3.932C-0.38,3.552 -0.325,3.037 -0.19,2.631C-0.054,2.224 0.217,1.79 0.542,1.383C0.84,1.004 1.22,0.624 1.572,0.326C1.898,0.055 2.25,-0.189 2.576,-0.27C2.792,-0.325 3.009,-0.189 3.064,0.055C3.118,0.272 2.982,0.489 2.765,0.516C2.657,0.543 2.413,0.679 2.088,0.95C1.789,1.194 1.437,1.546 1.166,1.899C0.895,2.251 0.678,2.603 0.596,2.902C0.488,3.2 0.542,3.308 0.569,3.363C0.623,3.417 0.813,3.498 1.274,3.363C1.681,3.281 2.223,3.037 2.792,2.685C3.931,2.034 5.151,1.058 5.856,0.272C6.209,-0.108 6.805,0.38 6.48,0.787C6.344,0.977 5.992,1.411 5.694,1.899C5.368,2.441 5.26,2.847 5.314,3.064C5.368,3.227 5.612,3.254 5.775,3.281C7.673,3.2 9.489,2.007 11.008,1.112C11.197,0.977 11.441,1.058 11.55,1.248C11.685,1.438 11.631,1.682 11.414,1.79C9.95,2.712 7.537,4.176 5.748,4.068C5.26,4.068 4.718,3.878 4.528,3.308C4.474,3.064 4.474,2.82 4.528,2.576L4.528,2.522L4.121,2.82C3.823,3.037 3.497,3.227 3.199,3.39C2.494,3.823 1.6,4.257 0.868,4.257C0.542,4.257 0.217,4.176 0,3.932" style="fill-rule:nonzero;"/>
            </g>
            <g transform="matrix(1,0,0,1,1163.4059,390.3876)">
                <path d="M0,-8.92C0.19,-8.92 0.407,-8.974 0.705,-9.083C1.247,-9.272 1.925,-9.598 2.63,-9.977L3.633,-10.547L4.094,-10.845L3.986,-10.899C3.552,-11.035 3.118,-11.116 2.711,-11.116C1.979,-11.116 1.328,-10.899 0.786,-10.601C-0.027,-10.113 -0.38,-9.489 -0.298,-9.083L-0.217,-8.947C-0.217,-8.947 -0.163,-8.92 0,-8.92M-7.158,2.359C-4.853,1.952 -1.708,-1.383 0.976,-4.934C1.301,-5.368 1.627,-5.775 1.925,-6.209L2.169,-6.561L1.247,-6.073C-2.386,-4.175 -5.802,-1.871 -7.347,-0.054C-8.107,0.786 -8.161,1.464 -8.052,1.844C-7.917,2.223 -7.564,2.44 -7.158,2.359M-8.812,2.115C-9.056,1.356 -8.812,0.38 -7.971,-0.596C-6.155,-2.684 -2.033,-5.395 2.115,-7.429L3.145,-7.917L3.199,-8.025L4.582,-10.086L4.663,-10.221L4.555,-10.167C4.067,-9.869 3.552,-9.543 3.009,-9.245C2.305,-8.866 1.572,-8.513 0.949,-8.296C0.407,-8.134 -0.298,-7.971 -0.732,-8.296C-0.786,-8.351 -0.841,-8.405 -0.868,-8.459C-1.057,-8.703 -1.139,-8.974 -1.139,-9.245C-1.139,-10.004 -0.488,-10.791 0.38,-11.306C1.03,-11.658 1.817,-11.929 2.711,-11.929C3.416,-11.929 4.148,-11.767 4.88,-11.387L4.907,-11.36L4.962,-11.387C5.341,-11.631 5.612,-11.848 5.775,-11.956C6.127,-12.228 6.588,-11.794 6.371,-11.414C6.317,-11.36 5.666,-10.248 4.636,-8.676L4.555,-8.567L4.582,-8.595C6.209,-9.272 8.703,-10.275 10.059,-10.601C10.276,-10.655 10.492,-10.547 10.547,-10.33C10.601,-10.086 10.465,-9.869 10.248,-9.815C8.92,-9.489 6.48,-8.513 4.88,-7.835L3.687,-7.293L3.47,-6.968L1.627,-4.446C-0.976,-1.03 -4.311,2.684 -7.022,3.172C-7.808,3.308 -8.541,2.874 -8.812,2.115" style="fill-rule:nonzero;"/>
            </g>
            <g transform="matrix(1,0,0,1,1177.5231,381.2233)">
                <path d="M0,-4.907C-0.108,-5.097 -0.027,-5.368 0.19,-5.449C0.298,-5.503 0.461,-5.639 0.624,-5.748L1.057,-6.127C1.22,-6.29 1.491,-6.263 1.627,-6.1C1.79,-5.937 1.762,-5.666 1.6,-5.531C1.491,-5.422 1.329,-5.259 1.139,-5.124C0.949,-4.988 0.732,-4.826 0.542,-4.717C0.353,-4.636 0.109,-4.717 0,-4.907M-4.961,0.597C-5.233,-0.298 -4.284,-1.274 -3.769,-1.789C-2.82,-2.765 -1.627,-3.66 -1.545,-3.714C-1.356,-3.85 -1.112,-3.795 -0.976,-3.606C-0.84,-3.416 -0.895,-3.172 -1.084,-3.036C-1.139,-3.009 -2.277,-2.141 -3.199,-1.22C-3.443,-0.976 -4.419,0.054 -4.175,0.38C-3.769,0.922 -1.599,0.217 -0.922,-0.054C0.244,-0.515 2.386,-1.708 2.738,-1.925C2.928,-2.06 3.172,-2.006 3.281,-1.816C3.416,-1.626 3.362,-1.382 3.172,-1.247C2.766,-0.976 0.596,0.244 -0.651,0.732C-1.356,1.003 -2.521,1.383 -3.497,1.383C-4.202,1.383 -4.772,1.166 -4.961,0.597" style="fill-rule:nonzero;"/>
            </g>
            <g transform="matrix(1,0,0,1,1182.6846,380.5188)">
                <path d="M0,0.027C0.298,-0.407 0.542,-0.868 0.597,-1.193C0.19,-1.464 -0.027,-1.654 -0.135,-1.844L-0.19,-1.762C-0.244,-1.708 -0.271,-1.708 -0.325,-1.681C-0.786,-1.491 -1.464,-1.03 -2.088,-0.353C-2.738,0.38 -3.307,1.627 -2.738,1.789C-1.952,2.006 -0.678,0.895 0,0.027M-2.793,2.521C-3.389,2.44 -3.687,2.061 -3.714,1.599C-3.769,1.193 -3.633,0.705 -3.416,0.244C-2.928,-0.705 -1.979,-1.762 -0.732,-2.332C-0.569,-2.386 -0.407,-2.359 -0.271,-2.278L-0.244,-2.25C-0.163,-2.549 0.027,-2.657 0.326,-2.657C0.407,-2.657 0.488,-2.63 0.597,-2.603C1.112,-2.413 1.356,-2.115 1.383,-1.735L1.383,-1.708C1.898,-1.464 3.145,-1.383 4.582,-1.383C6.859,-1.383 9.598,-1.6 10.438,-1.79C10.655,-1.844 10.899,-1.735 10.981,-1.546C11.035,-1.329 10.926,-1.112 10.737,-1.058C9.571,-0.786 6.887,-0.624 4.663,-0.624C3.172,-0.624 1.898,-0.705 1.356,-0.868L1.329,-0.814C1.193,-0.38 0.976,0.081 0.678,0.461C0.027,1.301 -1.437,2.684 -2.793,2.521" style="fill-rule:nonzero;"/>
            </g>
            <g transform="matrix(1,0,0,1,1204.3929,374.9329)">
                <path d="M0,6.589C0.949,6.128 2.142,5.315 3.443,4.23L3.525,4.176L2.955,4.068C1.817,3.932 0.624,4.285 -0.298,4.827C-1.627,5.586 -2.06,6.481 -1.871,6.752C-1.789,6.914 -1.627,6.996 -1.328,6.996C-1.003,6.969 -0.542,6.86 0,6.589M-0.298,13.828C-0.569,13.747 -0.705,13.53 -0.732,13.313C-0.813,12.879 -0.542,12.256 -0.244,11.659C0.108,11.008 0.624,10.168 1.247,9.246C2.169,7.863 3.335,6.237 4.555,4.583L5.097,3.878L4.528,4.393C3.01,5.694 1.545,6.752 0.353,7.321C-0.244,7.619 -0.813,7.782 -1.301,7.809C-1.817,7.809 -2.277,7.646 -2.576,7.185C-3.199,6.209 -2.033,4.881 -0.705,4.122C0.19,3.607 1.329,3.227 2.494,3.227C3.037,3.227 3.552,3.281 4.094,3.471L4.257,3.552L4.555,3.254C5.91,2.061 7.293,0.679 8.622,-0.758L9.137,-1.355L9.435,-1.734C11.279,-4.039 13.827,-6.832 13.882,-6.886C14.234,-7.293 14.83,-6.804 14.532,-6.398C13.664,-5.178 11.442,-2.765 10.357,-1.49L9.76,-0.813L9.516,-0.514C8.568,0.679 7.51,2.034 6.453,3.417C4.799,5.613 3.118,7.863 1.925,9.707C1.301,10.602 0.813,11.415 0.488,12.039C0.19,12.608 0.081,12.933 0.054,13.069L0.054,13.123L0.081,13.123C0.19,13.204 0.244,13.394 0.217,13.557C0.135,13.774 -0.081,13.882 -0.298,13.828" style="fill-rule:nonzero;"/>
            </g>
            <g transform="matrix(1,0,0,1,1215.6089,382.0912)">
                <path d="M0,-3.633C-1.058,-3.769 -2.116,-2.955 -2.793,-2.332C-2.278,-2.115 -0.543,-3.064 0,-3.633M-4.42,-0.136C-4.583,-0.759 -4.393,-1.464 -4.013,-2.061C-3.552,-2.82 -2.766,-3.497 -1.98,-3.931C-1.194,-4.365 -0.272,-4.636 0.433,-4.338L0.65,-4.229C0.92,-4.04 0.976,-3.714 0.867,-3.443C0.515,-2.711 -2.251,-1.084 -3.335,-1.627C-3.742,-1.003 -3.851,-0.244 -3.308,-0.027C-2.983,0.109 -2.495,0.163 -1.953,0.163C1.518,0.163 8.54,-2.142 9.651,-2.711C9.868,-2.82 10.112,-2.711 10.194,-2.494C10.275,-2.277 10.194,-2.061 9.977,-1.952C7.157,-0.759 1.87,0.786 -1.953,0.949C-3.363,1.003 -4.23,0.515 -4.42,-0.136" style="fill-rule:nonzero;"/>
            </g>
            <g transform="matrix(1,0,0,1,1233.0039,378.5661)">
                <path d="M0,3.959C0.081,3.715 0.57,3.01 3.714,-0.406C3.85,-0.596 4.122,-0.596 4.285,-0.46C4.448,-0.325 4.474,-0.054 4.339,0.109L3.444,1.166C4.664,0.543 7.673,-0.759 8.975,-0.515C9.49,-0.406 9.518,0.109 9.273,0.407C8.894,0.895 7.999,0.895 8.405,0.299L8.486,0.217L8.379,0.217C6.29,0.434 3.552,1.925 2.007,3.01C1.735,3.2 1.437,3.579 0.678,4.366C0.38,4.718 -0.189,4.366 0,3.959" style="fill-rule:nonzero;"/>
            </g>
            <g transform="matrix(1,0,0,1,1246.7714,382.0102)">
                <path d="M0,-3.552C-1.057,-3.688 -2.115,-2.874 -2.792,-2.251C-2.278,-2.034 -0.543,-2.983 0,-3.552M-4.392,-0.027C-4.609,-0.651 -4.392,-1.383 -4.013,-1.98C-3.552,-2.739 -2.765,-3.416 -1.979,-3.85C-1.193,-4.284 -0.27,-4.555 0.433,-4.257L0.65,-4.148C0.922,-3.959 0.976,-3.633 0.868,-3.362C0.515,-2.63 -2.25,-1.003 -3.335,-1.546L-3.442,-1.356C-3.661,-0.922 -3.715,-0.543 -3.633,-0.299C-3.47,0.081 -3.063,0.244 -2.522,0.244C-0.976,0.244 1.654,-0.922 2.142,-1.193C3.363,-1.817 4.474,-2.522 4.853,-2.739C5.07,-2.847 5.314,-2.793 5.422,-2.576C5.531,-2.386 5.45,-2.142 5.261,-2.034C4.963,-1.844 3.824,-1.139 2.548,-0.488C1.572,0 -0.759,1.003 -2.494,1.003C-3.389,1.003 -4.12,0.732 -4.392,-0.027" style="fill-rule:nonzero;"/>
            </g>
            <g transform="matrix(1,0,0,1,1251.3302,378.7557)">
                <path d="M0,2.956C0.082,3.173 0.326,3.444 1.111,3.417C2.739,3.309 4.257,2.712 5.503,2.061C6.724,1.438 7.618,0.787 7.998,0.57C8.214,0.462 8.459,0.516 8.568,0.733C8.675,0.923 8.594,1.167 8.405,1.275C7.753,1.655 4.69,3.986 1.165,4.23C0.163,4.257 -0.515,3.905 -0.759,3.227C-0.976,2.604 -0.759,1.871 -0.38,1.275C0.082,0.516 0.867,-0.162 1.654,-0.596C2.441,-1.029 3.361,-1.301 4.066,-1.002L4.283,-0.894C4.555,-0.704 4.609,-0.379 4.5,-0.108C4.283,0.353 3.85,0.624 3.524,0.76C3.226,0.923 2.739,0.624 3.144,0.272C3.254,0.163 3.498,-0.053 3.659,-0.352C3.226,-0.46 2.846,-0.297 2.196,0.001C1.302,0.407 -0.326,2.007 0,2.956" style="fill-rule:nonzero;"/>
            </g>
            <g transform="matrix(1,0,0,1,1257.8113,378.3491)">
                <path d="M0,3.932C-0.378,3.552 -0.324,3.037 -0.189,2.631C-0.054,2.224 0.219,1.79 0.542,1.383C0.841,1.004 1.22,0.624 1.574,0.326C1.898,0.055 2.252,-0.189 2.576,-0.27C2.794,-0.325 3.011,-0.189 3.065,0.055C3.118,0.272 2.983,0.489 2.766,0.516C2.657,0.543 2.415,0.679 2.089,0.95C1.791,1.194 1.439,1.546 1.167,1.899C0.896,2.251 0.68,2.603 0.598,2.902C0.489,3.2 0.542,3.308 0.57,3.363C0.624,3.417 0.815,3.498 1.276,3.363C1.681,3.281 2.224,3.037 2.794,2.685C3.933,2.034 5.151,1.058 5.857,0.272C6.209,-0.108 6.807,0.38 6.481,0.787C6.346,0.977 5.992,1.411 5.694,1.899C5.37,2.441 5.261,2.847 5.314,3.064C5.37,3.227 5.613,3.254 5.776,3.281C7.673,3.2 9.49,2.007 11.008,1.112C11.199,0.977 11.442,1.058 11.551,1.248C11.686,1.438 11.632,1.682 11.416,1.79C9.951,2.712 7.538,4.176 5.75,4.068C5.261,4.068 4.718,3.878 4.529,3.308C4.474,3.064 4.474,2.82 4.529,2.576L4.529,2.522L4.122,2.82C3.824,3.037 3.498,3.227 3.2,3.39C2.496,3.823 1.6,4.257 0.868,4.257C0.542,4.257 0.219,4.176 0,3.932" style="fill-rule:nonzero;"/>
            </g>
            <g transform="matrix(1,0,0,1,1272.162,382.0102)">
                <path d="M0,-3.552C-1.057,-3.688 -2.115,-2.874 -2.792,-2.251C-2.276,-2.034 -0.541,-2.983 0,-3.552M-4.392,-0.027C-4.609,-0.651 -4.392,-1.383 -4.013,-1.98C-3.552,-2.739 -2.765,-3.416 -1.978,-3.85C-1.193,-4.284 -0.27,-4.555 0.435,-4.257L0.652,-4.148C0.922,-3.959 0.978,-3.633 0.869,-3.362C0.517,-2.63 -2.25,-1.003 -3.333,-1.546L-3.442,-1.356C-3.659,-0.922 -3.713,-0.543 -3.633,-0.299C-3.47,0.081 -3.063,0.244 -2.52,0.244C-0.976,0.244 1.655,-0.922 2.142,-1.193C3.363,-1.817 4.474,-2.522 4.853,-2.739C5.07,-2.847 5.314,-2.793 5.424,-2.576C5.531,-2.386 5.45,-2.142 5.261,-2.034C4.963,-1.844 3.824,-1.139 2.55,-0.488C1.574,0 -0.759,1.003 -2.494,1.003C-3.389,1.003 -4.12,0.732 -4.392,-0.027" style="fill-rule:nonzero;"/>
            </g>
            <g transform="matrix(1,0,0,1,1274.3081,378.5661)">
                <path d="M0,3.959C0.082,3.715 0.57,3.01 3.715,-0.406C3.85,-0.596 4.122,-0.596 4.285,-0.46C4.446,-0.325 4.474,-0.054 4.339,0.109L3.444,1.166C4.663,0.543 7.673,-0.759 8.975,-0.515C9.49,-0.406 9.516,0.109 9.273,0.407C8.894,0.895 7.998,0.895 8.405,0.299L8.486,0.217L8.377,0.217C6.29,0.434 3.552,1.925 2.007,3.01C1.735,3.2 1.437,3.579 0.678,4.366C0.38,4.718 -0.189,4.366 0,3.959" style="fill-rule:nonzero;"/>
            </g>
            <g transform="matrix(1,0,0,1,1286.2869,374.9329)">
                <path d="M0,6.589C0.948,6.128 2.141,5.315 3.442,4.23L3.524,4.176L2.955,4.068C1.817,3.932 0.622,4.285 -0.298,4.827C-1.628,5.586 -2.061,6.481 -1.872,6.752C-1.791,6.914 -1.628,6.996 -1.33,6.996C-1.004,6.969 -0.543,6.86 0,6.589M-0.298,13.828C-0.57,13.747 -0.706,13.53 -0.733,13.313C-0.815,12.879 -0.543,12.256 -0.245,11.659C0.107,11.008 0.622,10.168 1.246,9.246C2.168,7.863 3.335,6.237 4.553,4.583L5.096,3.878L4.527,4.393C3.009,5.694 1.544,6.752 0.352,7.321C-0.245,7.619 -0.815,7.782 -1.302,7.809C-1.817,7.809 -2.278,7.646 -2.576,7.185C-3.2,6.209 -2.035,4.881 -0.706,4.122C0.189,3.607 1.328,3.227 2.494,3.227C3.035,3.227 3.552,3.281 4.092,3.471L4.255,3.552L4.553,3.254C5.909,2.061 7.292,0.679 8.622,-0.758L9.136,-1.355L9.434,-1.734C11.279,-4.039 13.827,-6.832 13.88,-6.886C14.234,-7.293 14.83,-6.804 14.532,-6.398C13.664,-5.178 11.44,-2.765 10.357,-1.49L9.76,-0.813L9.516,-0.514C8.566,0.679 7.509,2.034 6.451,3.417C4.798,5.613 3.116,7.863 1.924,9.707C1.3,10.602 0.813,11.415 0.487,12.039C0.189,12.608 0.081,12.933 0.054,13.069L0.054,13.123L0.081,13.123C0.189,13.204 0.243,13.394 0.217,13.557C0.135,13.774 -0.082,13.882 -0.298,13.828" style="fill-rule:nonzero;"/>
            </g>
            <g transform="matrix(1,0,0,1,1296.9583,380.5188)">
                <path d="M0,0.027C0.298,-0.407 0.543,-0.868 0.598,-1.193C0.191,-1.464 -0.026,-1.654 -0.135,-1.844L-0.189,-1.762C-0.243,-1.708 -0.27,-1.708 -0.324,-1.681C-0.785,-1.491 -1.463,-1.03 -2.087,-0.353C-2.737,0.38 -3.307,1.627 -2.737,1.789C-1.952,2.006 -0.678,0.895 0,0.027M-2.792,2.521C-3.389,2.44 -3.687,2.061 -3.714,1.599C-3.768,1.193 -3.633,0.705 -3.415,0.244C-2.928,-0.705 -1.978,-1.762 -0.731,-2.332C-0.568,-2.386 -0.406,-2.359 -0.27,-2.278L-0.243,-2.25C-0.161,-2.549 0.028,-2.657 0.326,-2.657C0.407,-2.657 0.489,-2.63 0.598,-2.603C1.113,-2.413 1.357,-2.115 1.383,-1.735L1.383,-1.708C2.089,-1.383 2.874,-1.274 3.661,-1.274C4.392,-1.274 5.151,-1.383 5.803,-1.518C6.02,-1.573 6.264,-1.464 6.346,-1.274C6.4,-1.058 6.29,-0.841 6.101,-0.786C5.233,-0.596 4.474,-0.515 3.77,-0.515C2.874,-0.515 2.089,-0.651 1.355,-0.868L1.329,-0.814C1.194,-0.38 0.978,0.081 0.678,0.461C0.028,1.301 -1.437,2.684 -2.792,2.521" style="fill-rule:nonzero;"/>
            </g>
            <g transform="matrix(1,0,0,1,1301.1301,378.3226)">
                <path d="M0,4.067C-0.217,3.958 -0.298,3.714 -0.189,3.525C-0.081,3.335 0.163,3.254 0.352,3.335C0.869,3.606 2.007,3.769 3.146,3.769C3.552,3.769 3.959,3.742 4.283,3.687L4.527,3.633L4.339,3.579C3.878,3.389 3.363,3.199 2.902,2.982C2.441,2.738 1.979,2.467 1.654,2.142C1.33,1.817 1.139,1.328 1.383,0.841C1.763,0.109 2.874,-0.217 3.878,-0.38C4.555,-0.488 5.314,-0.515 6.02,-0.515C6.425,-0.515 6.833,-0.515 7.185,-0.488C7.618,-0.461 7.699,0.109 7.32,0.271L6.859,0.569C6.698,0.678 6.616,0.786 6.561,0.841L6.535,0.895L6.535,0.922C6.507,1.112 6.344,1.247 6.155,1.274C5.938,1.274 5.748,1.112 5.72,0.895C5.72,0.759 5.748,0.678 5.776,0.596L5.883,0.38L5.964,0.298L5.613,0.298C5.07,0.325 4.502,0.352 3.985,0.434C3.498,0.515 3.037,0.624 2.711,0.759C2.359,0.922 2.168,1.057 2.115,1.193C2.061,1.301 2.061,1.41 2.25,1.6C2.441,1.817 2.792,2.033 3.254,2.25C4.148,2.684 5.233,3.009 5.776,3.226C5.992,3.335 6.074,3.633 5.938,3.85C5.694,4.175 5.205,4.338 4.772,4.419C4.311,4.528 3.715,4.582 3.146,4.582C2.007,4.582 0.678,4.419 0,4.067" style="fill-rule:nonzero;"/>
            </g>
            <g transform="matrix(1,0,0,1,1180.1381,340.6932)">
                <path d="M0,6.16L0,0L4.307,0L4.307,0.7L0.744,0.7L0.744,2.688L3.516,2.688L3.516,3.388L0.744,3.388L0.744,5.46L4.446,5.46L4.446,6.16L0,6.16Z" style="fill-rule:nonzero;"/>
            </g>
            <g transform="matrix(1,0,0,1,1189.5302,346.9464)">
                <path d="M0,-6.347C0.54,-6.347 1.005,-6.235 1.395,-6.011C1.786,-5.793 2.111,-5.47 2.372,-5.04L1.749,-4.555C1.519,-4.953 1.259,-5.233 0.967,-5.395C0.682,-5.563 0.335,-5.647 -0.074,-5.647C-0.403,-5.647 -0.676,-5.6 -0.893,-5.507C-1.104,-5.414 -1.259,-5.289 -1.358,-5.134C-1.457,-4.984 -1.507,-4.813 -1.507,-4.62C-1.507,-4.402 -1.439,-4.21 -1.302,-4.041C-1.166,-3.88 -0.893,-3.752 -0.484,-3.659L0.846,-3.36C1.436,-3.229 1.845,-3.03 2.074,-2.763C2.31,-2.501 2.428,-2.175 2.428,-1.783C2.428,-1.434 2.328,-1.123 2.13,-0.849C1.938,-0.582 1.665,-0.373 1.312,-0.224C0.958,-0.075 0.543,0 0.065,0C-0.381,0 -0.775,-0.059 -1.116,-0.177C-1.451,-0.302 -1.74,-0.467 -1.981,-0.672C-2.223,-0.877 -2.422,-1.107 -2.577,-1.363L-1.925,-1.895C-1.808,-1.658 -1.656,-1.45 -1.47,-1.269C-1.284,-1.089 -1.06,-0.949 -0.8,-0.849C-0.533,-0.75 -0.229,-0.7 0.112,-0.7C0.428,-0.7 0.701,-0.737 0.93,-0.812C1.166,-0.893 1.346,-1.008 1.47,-1.157C1.594,-1.313 1.656,-1.5 1.656,-1.717C1.656,-1.916 1.591,-2.094 1.46,-2.249C1.33,-2.411 1.085,-2.532 0.725,-2.613L-0.716,-2.94C-1.095,-3.027 -1.401,-3.145 -1.637,-3.295C-1.867,-3.45 -2.034,-3.631 -2.14,-3.836C-2.239,-4.048 -2.288,-4.275 -2.288,-4.518C-2.288,-4.847 -2.198,-5.149 -2.019,-5.423C-1.833,-5.703 -1.569,-5.927 -1.228,-6.095C-0.88,-6.263 -0.471,-6.347 0,-6.347" style="fill-rule:nonzero;"/>
            </g>
            <g transform="matrix(1,0,0,1,1199.0398,346.8527)">
                <path d="M0,-6.16L0,-5.46L-2.139,-5.46L-2.139,0L-2.884,0L-2.884,-5.46L-5.023,-5.46L-5.023,-6.16L0,-6.16Z" style="fill-rule:nonzero;"/>
            </g>
            <g transform="matrix(1,0,0,1,1201.1865,346.9461)">
                <path d="M0,-1.213C0.18,-1.213 0.325,-1.157 0.437,-1.045C0.549,-0.933 0.604,-0.787 0.604,-0.606C0.604,-0.426 0.549,-0.28 0.437,-0.168C0.325,-0.055 0.18,0 0,0C-0.18,0 -0.326,-0.055 -0.437,-0.168C-0.549,-0.28 -0.605,-0.426 -0.605,-0.606C-0.605,-0.787 -0.549,-0.933 -0.437,-1.045C-0.326,-1.157 -0.18,-1.213 0,-1.213" style="fill-rule:nonzero;"/>
            </g>
            <g transform="matrix(1,0,0,1,1210.3201,340.6932)">
                <path d="M0,6.16L0,1.306C0.006,1.182 0.012,1.054 0.018,0.924C-0.192,1.129 -0.437,1.309 -0.716,1.465C-0.995,1.614 -1.281,1.723 -1.572,1.792L-1.767,1.11C-1.656,1.098 -1.516,1.057 -1.349,0.989C-1.175,0.914 -0.995,0.824 -0.809,0.718C-0.617,0.606 -0.44,0.488 -0.279,0.364C-0.118,0.239 0.006,0.118 0.093,0L0.744,0L0.744,6.16L0,6.16Z" style="fill-rule:nonzero;"/>
            </g>
            <g transform="matrix(1,0,0,1,1216.27,346.2271)">
                <path d="M0,-4.909C-0.433,-4.909 -0.767,-4.788 -0.996,-4.545C-1.225,-4.308 -1.34,-3.976 -1.34,-3.546C-1.34,-3.179 -1.219,-2.887 -0.976,-2.669C-0.735,-2.457 -0.409,-2.351 0,-2.351C0.267,-2.351 0.5,-2.404 0.698,-2.51C0.902,-2.622 1.061,-2.771 1.172,-2.958C1.283,-3.151 1.339,-3.372 1.339,-3.621C1.339,-3.882 1.283,-4.109 1.172,-4.302C1.061,-4.495 0.902,-4.644 0.698,-4.75C0.5,-4.856 0.267,-4.909 0,-4.909M-0.009,-5.628C0.505,-5.628 0.939,-5.491 1.292,-5.217C1.646,-4.949 1.913,-4.576 2.092,-4.097C2.272,-3.624 2.363,-3.076 2.363,-2.454C2.363,-1.763 2.272,-1.182 2.092,-0.709C1.913,-0.242 1.646,0.113 1.292,0.355C0.946,0.598 0.515,0.719 0,0.719C-0.509,0.719 -0.946,0.601 -1.312,0.365C-1.677,0.128 -1.95,-0.217 -2.13,-0.671L-1.395,-1.063C-1.296,-0.74 -1.135,-0.478 -0.911,-0.279C-0.682,-0.08 -0.369,0.02 0.028,0.02C0.35,0.02 0.617,-0.043 0.828,-0.167C1.044,-0.298 1.215,-0.482 1.339,-0.718C1.463,-0.961 1.55,-1.25 1.6,-1.586C1.655,-1.922 1.683,-2.295 1.683,-2.706L1.683,-2.79L1.646,-2.79C1.572,-2.51 1.442,-2.283 1.255,-2.109C1.07,-1.941 0.859,-1.819 0.624,-1.745C0.394,-1.67 0.165,-1.633 -0.065,-1.633C-0.469,-1.633 -0.824,-1.711 -1.135,-1.866C-1.445,-2.028 -1.687,-2.252 -1.86,-2.538C-2.034,-2.824 -2.121,-3.163 -2.121,-3.555C-2.121,-3.979 -2.037,-4.343 -1.87,-4.648C-1.702,-4.959 -1.46,-5.198 -1.144,-5.366C-0.828,-5.541 -0.45,-5.628 -0.009,-5.628" style="fill-rule:nonzero;"/>
            </g>
            <g transform="matrix(1,0,0,1,1221.4159,340.5992)">
                <path d="M0,6.254L0,5.647C0.613,5.193 1.126,4.795 1.535,4.453C1.95,4.11 2.281,3.799 2.529,3.519C2.777,3.239 2.955,2.975 3.061,2.726C3.165,2.471 3.218,2.206 3.218,1.932C3.218,1.565 3.1,1.27 2.865,1.046C2.635,0.815 2.318,0.7 1.917,0.7C1.494,0.7 1.155,0.84 0.902,1.12C0.648,1.394 0.498,1.761 0.455,2.222L-0.196,1.83C-0.141,1.469 -0.026,1.151 0.148,0.878C0.328,0.604 0.567,0.389 0.865,0.233C1.168,0.078 1.528,0 1.944,0C2.259,0 2.542,0.047 2.791,0.14C3.044,0.233 3.261,0.367 3.44,0.542C3.622,0.71 3.757,0.912 3.85,1.148C3.95,1.385 4,1.646 4,1.932C4,2.318 3.907,2.698 3.72,3.071C3.535,3.438 3.228,3.824 2.8,4.229C2.372,4.633 1.792,5.081 1.059,5.573L1.059,5.582C1.128,5.576 1.222,5.573 1.339,5.573C1.463,5.566 1.583,5.563 1.702,5.563C1.826,5.557 1.918,5.554 1.981,5.554L4.129,5.554L4.129,6.254L0,6.254Z" style="fill-rule:nonzero;"/>
            </g>
            <g transform="matrix(1,0,0,1,1230.5319,341.2715)">
                <path d="M0,5.003C0.328,5.003 0.604,4.91 0.828,4.723C1.057,4.53 1.228,4.247 1.339,3.874C1.457,3.5 1.516,3.043 1.516,2.502C1.516,1.96 1.457,1.503 1.339,1.129C1.228,0.756 1.057,0.476 0.828,0.289C0.604,0.096 0.328,0 0,0C-0.33,0 -0.607,0.096 -0.837,0.289C-1.061,0.476 -1.231,0.756 -1.35,1.129C-1.461,1.503 -1.517,1.96 -1.517,2.502C-1.517,3.043 -1.461,3.5 -1.35,3.874C-1.231,4.247 -1.061,4.53 -0.837,4.723C-0.607,4.91 -0.33,5.003 0,5.003M0,5.675C-0.694,5.675 -1.25,5.404 -1.665,4.863C-2.081,4.322 -2.289,3.534 -2.289,2.502C-2.289,1.468 -2.081,0.681 -1.665,0.14C-1.25,-0.401 -0.694,-0.672 0,-0.672C0.7,-0.672 1.255,-0.401 1.665,0.14C2.079,0.681 2.289,1.468 2.289,2.502C2.289,3.534 2.079,4.322 1.665,4.863C1.255,5.404 0.7,5.675 0,5.675" style="fill-rule:nonzero;"/>
            </g>
        </g>
    </g>
</svg>
