<?xml version="1.0" encoding="UTF-8" standalone="no"?>
<!DOCTYPE svg PUBLIC "-//W3C//DTD SVG 1.1//EN" "http://www.w3.org/Graphics/SVG/1.1/DTD/svg11.dtd">
<svg width="100%" height="100%" viewBox="0 0 800 800" version="1.1" xmlns="http://www.w3.org/2000/svg" xmlns:xlink="http://www.w3.org/1999/xlink" xml:space="preserve" xmlns:serif="http://www.serif.com/" style="fill-rule:evenodd;clip-rule:evenodd;stroke-linejoin:round;stroke-miterlimit:2;">
    <g transform="matrix(2.243453,0,0,2.243453,768.177063,298.227228)">
        <path d="M0,69.891C-1.001,72.224 -2.318,73.981 -3.954,75.162C-5.559,76.313 -7.273,76.889 -9.089,76.889C-10.907,76.889 -12.635,76.313 -14.269,75.162C-15.905,73.981 -17.222,72.224 -18.223,69.891C-19.223,67.528 -19.722,64.68 -19.722,61.348C-19.722,58.046 -19.223,55.228 -18.223,52.896C-17.222,50.563 -15.905,48.821 -14.269,47.67C-12.635,46.489 -10.907,45.898 -9.089,45.898C-7.273,45.898 -5.559,46.489 -3.954,47.67C-2.318,48.821 -1.001,50.563 0,52.896C1.029,55.228 1.545,58.046 1.545,61.348C1.545,64.68 1.029,67.528 0,69.891M3.498,52.169C2.013,49.594 0.134,47.655 -2.138,46.352C-4.41,45.019 -6.725,44.353 -9.089,44.353C-11.452,44.353 -13.784,45.019 -16.087,46.352C-18.36,47.655 -20.238,49.594 -21.721,52.169C-23.206,54.744 -23.95,57.804 -23.95,61.348C-23.95,64.923 -23.206,67.998 -21.721,70.573C-20.238,73.148 -18.36,75.102 -16.087,76.435C-13.784,77.737 -11.452,78.389 -9.089,78.389C-6.725,78.389 -4.41,77.737 -2.138,76.435C0.134,75.102 2.013,73.148 3.498,70.573C4.983,67.998 5.725,64.923 5.725,61.348C5.725,57.804 4.983,54.744 3.498,52.169M-48.302,76.389L-50.118,76.435L-51.164,76.389C-52.558,76.329 -53.573,76.116 -54.209,75.753C-54.813,75.359 -55.119,74.647 -55.119,73.617L-55.119,48.897C-55.119,47.867 -54.799,47.14 -54.164,46.716C-53.528,46.261 -52.527,46.034 -51.164,46.034L-50.483,46.034C-50.241,46.034 -50.118,45.822 -50.118,45.398C-50.118,45.186 -50.149,45.035 -50.209,44.944C-50.241,44.823 -50.332,44.762 -50.483,44.762L-63.389,44.762C-63.6,44.762 -63.705,44.974 -63.705,45.398C-63.705,45.822 -63.6,46.034 -63.389,46.034L-62.662,46.034C-61.328,46.034 -60.344,46.246 -59.708,46.67C-59.07,47.095 -58.753,47.837 -58.753,48.897L-58.753,73.617C-58.753,74.678 -59.056,75.42 -59.663,75.844C-60.267,76.238 -61.268,76.435 -62.662,76.435L-63.389,76.435C-63.6,76.435 -63.705,76.662 -63.705,77.116C-63.705,77.328 -63.691,77.495 -63.66,77.616C-63.6,77.707 -63.509,77.752 -63.389,77.752L-39.667,77.752C-39.122,77.752 -38.757,77.495 -38.578,76.98L-36.123,70.436L-36.078,70.209C-36.078,70.027 -36.2,69.876 -36.443,69.755C-36.622,69.664 -36.759,69.618 -36.85,69.618C-37.001,69.618 -37.124,69.694 -37.215,69.846C-38.606,71.815 -40.137,73.39 -41.802,74.572C-43.47,75.723 -45.637,76.329 -48.302,76.389M-80.406,61.348C-80.406,64.68 -80.919,67.528 -81.951,69.891C-82.949,72.224 -84.269,73.981 -85.905,75.162C-87.51,76.313 -89.221,76.889 -91.039,76.889C-92.855,76.889 -94.583,76.313 -96.219,75.162C-97.856,73.981 -99.173,72.224 -100.174,69.891C-101.171,67.528 -101.673,64.68 -101.673,61.348C-101.673,58.046 -101.171,55.228 -100.174,52.896C-99.173,50.563 -97.856,48.821 -96.219,47.67C-94.583,46.489 -92.855,45.898 -91.039,45.898C-89.221,45.898 -87.51,46.489 -85.905,47.67C-84.269,48.821 -82.949,50.563 -81.951,52.896C-80.919,55.228 -80.406,58.046 -80.406,61.348M-91.039,44.353C-93.403,44.353 -95.735,45.019 -98.035,46.352C-100.308,47.655 -102.186,49.594 -103.672,52.169C-105.157,54.744 -105.898,57.804 -105.898,61.348C-105.898,64.923 -105.157,67.998 -103.672,70.573C-102.186,73.148 -100.308,75.102 -98.035,76.435C-95.735,77.737 -93.403,78.389 -91.039,78.389C-88.676,78.389 -86.358,77.737 -84.086,76.435C-81.814,75.102 -79.935,73.148 -78.45,70.573C-76.968,67.998 -76.223,64.923 -76.223,61.348C-76.223,57.804 -76.968,54.744 -78.45,52.169C-79.935,49.594 -81.814,47.655 -84.086,46.352C-86.358,45.019 -88.676,44.353 -91.039,44.353M-118.242,77.116C-118.242,76.904 -118.274,76.753 -118.334,76.662C-118.365,76.541 -118.456,76.48 -118.607,76.48L-119.289,76.48C-120.683,76.48 -121.681,76.283 -122.288,75.889C-122.892,75.465 -123.197,74.723 -123.197,73.663L-123.197,48.897C-123.197,47.837 -122.909,47.095 -122.333,46.67C-121.726,46.246 -120.711,46.034 -119.289,46.034L-118.607,46.034C-118.365,46.034 -118.242,45.822 -118.242,45.398C-118.242,45.186 -118.274,45.035 -118.334,44.944C-118.365,44.823 -118.456,44.762 -118.607,44.762L-131.468,44.762C-131.678,44.762 -131.784,44.974 -131.784,45.398C-131.784,45.822 -131.678,46.034 -131.468,46.034L-130.741,46.034C-129.406,46.034 -128.423,46.246 -127.787,46.67C-127.149,47.095 -126.832,47.837 -126.832,48.897L-126.832,58.712C-126.832,59.015 -126.923,59.258 -127.103,59.439C-127.257,59.591 -127.482,59.667 -127.787,59.667L-144.145,59.667C-144.448,59.667 -144.69,59.591 -144.872,59.439C-145.023,59.258 -145.1,59.015 -145.1,58.712L-145.1,48.852C-145.1,47.791 -144.812,47.049 -144.237,46.625C-143.629,46.201 -142.615,45.989 -141.192,45.989L-140.51,45.989C-140.268,45.989 -140.146,45.777 -140.146,45.352C-140.146,45.141 -140.177,44.989 -140.237,44.898C-140.268,44.777 -140.357,44.716 -140.51,44.716L-153.369,44.716C-153.581,44.716 -153.687,44.929 -153.687,45.352C-153.687,45.777 -153.581,45.989 -153.369,45.989L-152.642,45.989C-151.31,45.989 -150.326,46.201 -149.687,46.625C-149.052,47.049 -148.735,47.791 -148.735,48.852L-148.735,73.617C-148.735,74.617 -149.052,75.344 -149.687,75.798C-150.295,76.222 -151.278,76.435 -152.642,76.435L-153.369,76.435C-153.581,76.435 -153.687,76.647 -153.687,77.071C-153.687,77.495 -153.581,77.707 -153.369,77.707L-140.51,77.707C-140.268,77.707 -140.146,77.495 -140.146,77.071C-140.146,76.859 -140.177,76.707 -140.237,76.616C-140.268,76.495 -140.357,76.435 -140.51,76.435L-141.192,76.435C-142.586,76.435 -143.584,76.238 -144.191,75.844C-144.795,75.42 -145.1,74.678 -145.1,73.617L-145.1,62.348C-145.1,62.045 -145.023,61.818 -144.872,61.666C-144.69,61.484 -144.448,61.393 -144.145,61.393L-127.787,61.393C-127.482,61.393 -127.257,61.484 -127.103,61.666C-126.923,61.818 -126.832,62.045 -126.832,62.348L-126.832,73.663C-126.832,74.662 -127.149,75.389 -127.787,75.844C-128.391,76.268 -129.375,76.48 -130.741,76.48L-131.468,76.48C-131.678,76.48 -131.784,76.692 -131.784,77.116C-131.784,77.54 -131.678,77.752 -131.468,77.752L-118.607,77.752C-118.365,77.752 -118.242,77.54 -118.242,77.116M-165.994,69.255C-166.176,69.103 -166.327,69.027 -166.448,69.027C-166.57,69.027 -166.706,69.118 -166.857,69.3C-168.312,71.451 -169.841,73.148 -171.447,74.39C-173.052,75.602 -174.991,76.207 -177.264,76.207C-179.112,76.207 -180.959,75.693 -182.807,74.662C-184.625,73.602 -186.155,71.936 -187.397,69.664C-188.609,67.392 -189.215,64.544 -189.215,61.121C-189.215,59.546 -188.972,57.622 -188.487,55.35C-187.972,53.078 -186.912,50.972 -185.307,49.033C-183.671,47.064 -181.338,46.08 -178.309,46.08C-176.219,46.08 -174.386,46.534 -172.81,47.443C-171.205,48.352 -169.993,49.457 -169.175,50.76C-168.357,52.063 -167.872,52.82 -167.721,53.032C-167.539,53.244 -167.357,53.35 -167.175,53.35L-167.039,53.35C-167.039,53.35 -166.963,53.32 -166.812,53.259C-166.66,53.199 -166.57,53.063 -166.539,52.851L-166.539,52.76L-166.63,52.26L-168.175,45.898C-168.266,45.534 -168.433,45.352 -168.675,45.352C-168.826,45.352 -169.023,45.428 -169.266,45.58C-169.902,45.943 -170.523,46.125 -171.129,46.125C-171.371,46.125 -171.689,46.065 -172.083,45.943C-172.447,45.822 -172.825,45.686 -173.219,45.534C-174.249,45.171 -175.158,44.883 -175.946,44.671C-176.733,44.459 -177.627,44.353 -178.627,44.353C-180.99,44.353 -183.307,45.11 -185.579,46.625C-187.851,48.109 -189.714,50.2 -191.169,52.896C-192.623,55.592 -193.35,58.667 -193.35,62.12C-193.35,65.665 -192.532,68.664 -190.896,71.118C-189.26,73.572 -187.246,75.405 -184.852,76.616C-182.459,77.798 -180.157,78.389 -177.945,78.389C-172.886,78.389 -168.826,75.602 -165.767,70.027C-165.706,69.906 -165.676,69.815 -165.676,69.755C-165.676,69.603 -165.782,69.437 -165.994,69.255M-248.049,75.844C-248.655,76.238 -249.654,76.435 -251.048,76.435L-251.775,76.435C-251.987,76.435 -252.093,76.662 -252.093,77.116C-252.093,77.328 -252.078,77.495 -252.048,77.616C-251.987,77.707 -251.896,77.752 -251.775,77.752L-228.055,77.752C-227.509,77.752 -227.146,77.495 -226.964,76.98L-224.51,70.436L-224.465,70.209C-224.465,70.027 -224.586,69.876 -224.828,69.755C-225.01,69.664 -225.146,69.618 -225.237,69.618C-225.389,69.618 -225.51,69.694 -225.601,69.846C-226.994,71.815 -228.524,73.39 -230.19,74.572C-231.856,75.723 -234.023,76.329 -236.689,76.389L-238.506,76.435L-239.551,76.389C-240.945,76.329 -241.96,76.116 -242.596,75.753C-243.202,75.359 -243.505,74.647 -243.505,73.617L-243.505,48.897C-243.505,47.867 -243.187,47.14 -242.551,46.716C-241.914,46.261 -240.914,46.034 -239.551,46.034L-238.87,46.034C-238.627,46.034 -238.506,45.822 -238.506,45.398C-238.506,45.186 -238.537,45.035 -238.597,44.944C-238.627,44.823 -238.718,44.762 -238.87,44.762L-251.775,44.762C-251.987,44.762 -252.093,44.974 -252.093,45.398C-252.093,45.822 -251.987,46.034 -251.775,46.034L-251.048,46.034C-249.715,46.034 -248.73,46.246 -248.094,46.67C-247.458,47.095 -247.14,47.837 -247.14,48.897L-247.14,73.617C-247.14,74.678 -247.443,75.42 -248.049,75.844M-288.07,75.844C-288.676,76.268 -289.661,76.48 -291.024,76.48L-291.751,76.48C-291.963,76.48 -292.069,76.692 -292.069,77.116C-292.069,77.54 -291.963,77.752 -291.751,77.752L-267.349,77.752C-266.804,77.752 -266.44,77.495 -266.258,76.98C-265.744,75.496 -264.986,73.496 -263.987,70.981C-263.835,70.588 -263.759,70.345 -263.759,70.255C-263.759,69.982 -263.896,69.8 -264.168,69.709C-264.35,69.649 -264.486,69.618 -264.577,69.618C-264.729,69.618 -264.85,69.679 -264.941,69.8C-266.001,71.133 -266.97,72.224 -267.849,73.072C-268.697,73.89 -269.788,74.617 -271.121,75.253C-272.454,75.889 -274.059,76.283 -275.938,76.435C-276.271,76.465 -276.801,76.48 -277.528,76.48C-278.497,76.48 -279.179,76.465 -279.573,76.435C-280.906,76.374 -281.891,76.147 -282.527,75.753C-283.163,75.359 -283.481,74.647 -283.481,73.617L-283.481,62.439C-283.481,62.136 -283.405,61.909 -283.254,61.757C-283.072,61.575 -282.83,61.484 -282.527,61.484L-279.391,61.484C-277.543,61.484 -276.331,61.5 -275.756,61.53C-274.483,61.56 -273.499,61.984 -272.802,62.802C-272.075,63.62 -271.712,64.65 -271.712,65.892C-271.712,66.134 -271.514,66.256 -271.121,66.256C-270.697,66.256 -270.484,66.134 -270.484,65.892L-270.484,55.486C-270.484,55.365 -270.545,55.289 -270.666,55.259C-270.757,55.198 -270.909,55.168 -271.121,55.168C-271.514,55.168 -271.712,55.274 -271.712,55.486C-271.712,56.728 -272.075,57.758 -272.802,58.576C-273.499,59.394 -274.483,59.818 -275.756,59.849C-276.331,59.879 -277.543,59.894 -279.391,59.894L-282.527,59.894C-282.83,59.894 -283.072,59.818 -283.254,59.667C-283.405,59.485 -283.481,59.242 -283.481,58.94L-283.481,48.897C-283.481,48.019 -283.284,47.382 -282.89,46.989C-282.496,46.595 -281.966,46.352 -281.3,46.261C-280.633,46.14 -279.679,46.08 -278.437,46.08L-277.301,46.08C-275.089,46.08 -273.029,46.489 -271.121,47.306C-269.212,48.094 -267.591,49.154 -266.258,50.487C-266.137,50.609 -265.986,50.669 -265.804,50.669C-265.653,50.669 -265.531,50.639 -265.44,50.578C-265.198,50.427 -265.077,50.275 -265.077,50.124C-265.077,50.033 -265.092,49.957 -265.123,49.897C-265.334,49.503 -265.668,48.882 -266.122,48.034C-266.577,47.185 -267.061,46.322 -267.576,45.443C-267.788,44.989 -268.167,44.762 -268.712,44.762L-291.751,44.762C-291.963,44.762 -292.069,44.974 -292.069,45.398C-292.069,45.822 -291.963,46.034 -291.751,46.034L-291.024,46.034C-289.722,46.034 -288.752,46.246 -288.116,46.67C-287.449,47.095 -287.116,47.837 -287.116,48.897L-287.116,73.617C-287.116,74.647 -287.434,75.389 -288.07,75.844M-311.165,70.482C-312.649,72.724 -314.392,74.269 -316.391,75.117C-318.36,75.965 -320.223,76.389 -321.98,76.389L-322.344,76.389C-323.737,76.389 -324.737,76.177 -325.343,75.753C-325.918,75.329 -326.206,74.602 -326.206,73.572L-326.206,48.988C-326.206,47.928 -325.918,47.185 -325.343,46.761C-324.737,46.337 -323.737,46.125 -322.344,46.125L-321.98,46.125C-320.223,46.125 -318.36,46.549 -316.391,47.397C-314.392,48.215 -312.649,49.761 -311.165,52.033C-309.65,54.274 -308.893,57.349 -308.893,61.257C-308.893,65.135 -309.65,68.21 -311.165,70.482M-313.119,46.716C-315.573,45.595 -318.239,44.974 -321.117,44.853C-323.359,44.762 -326.115,44.716 -329.387,44.716C-331.871,44.716 -333.386,44.732 -333.931,44.762C-334.204,44.762 -334.416,44.792 -334.567,44.853C-334.689,44.883 -334.764,44.989 -334.795,45.171L-334.795,45.398C-334.795,45.822 -334.689,46.034 -334.476,46.034L-333.749,46.034C-332.386,46.034 -331.402,46.246 -330.796,46.67C-330.19,47.064 -329.887,47.807 -329.887,48.897L-329.887,73.663C-329.887,74.723 -330.19,75.465 -330.796,75.889C-331.402,76.283 -332.386,76.48 -333.749,76.48L-334.476,76.48C-334.719,76.48 -334.84,76.692 -334.84,77.116C-334.84,77.54 -334.719,77.752 -334.476,77.752L-328.614,77.798C-325.615,77.798 -323.116,77.752 -321.117,77.662C-318.239,77.54 -315.573,76.919 -313.119,75.798C-310.635,74.647 -308.62,72.875 -307.075,70.482C-305.5,68.058 -304.712,64.983 -304.712,61.257C-304.712,57.501 -305.5,54.426 -307.075,52.033C-308.62,49.609 -310.635,47.837 -313.119,46.716M-20.826,10.378C-19.069,5.409 -17.342,0.699 -15.646,-3.755C-15.586,-3.906 -15.463,-3.876 -15.283,-3.664C-15.101,-3.452 -14.95,-3.134 -14.827,-2.71L-10.283,10.378L-10.192,10.741C-10.192,11.226 -10.48,11.468 -11.056,11.468L-20.053,11.468C-20.327,11.468 -20.538,11.408 -20.689,11.286C-20.843,11.165 -20.917,10.999 -20.917,10.787C-20.917,10.696 -20.885,10.559 -20.826,10.378M-19.737,24.464C-19.737,24.313 -19.751,24.177 -19.782,24.055C-19.811,23.904 -19.888,23.828 -20.007,23.828C-22.887,23.828 -24.326,22.889 -24.326,21.011C-24.326,20.435 -24.19,19.769 -23.916,19.011L-22.915,16.103L-22.143,13.967C-21.963,13.452 -21.598,13.195 -21.054,13.195L-10.146,13.195C-9.602,13.195 -9.24,13.452 -9.057,13.967L-6.831,20.375C-6.708,20.708 -6.648,21.056 -6.648,21.42C-6.648,22.329 -7.073,22.965 -7.92,23.328C-8.769,23.662 -9.77,23.828 -10.919,23.828C-11.041,23.828 -11.133,23.889 -11.192,24.01C-11.224,24.101 -11.238,24.252 -11.238,24.464C-11.238,24.677 -11.224,24.843 -11.192,24.964C-11.133,25.055 -11.041,25.101 -10.919,25.101L1.984,25.101C2.167,25.101 2.258,24.888 2.258,24.464C2.258,24.313 2.244,24.177 2.212,24.055C2.184,23.904 2.107,23.828 1.984,23.828C-0.499,23.828 -2.226,22.526 -3.196,19.92C-3.558,19.011 -4.787,15.573 -6.876,9.605C-8.935,3.637 -10.48,-0.816 -11.512,-3.755L-13.057,-8.253C-13.085,-8.375 -13.177,-8.481 -13.328,-8.572C-13.388,-8.632 -13.51,-8.663 -13.693,-8.663C-13.872,-8.663 -14.086,-8.617 -14.328,-8.526L-15.101,-8.299C-15.554,-8.147 -15.874,-7.845 -16.056,-7.39L-26.279,19.739C-26.855,21.193 -27.596,22.238 -28.506,22.874C-29.415,23.51 -30.307,23.828 -31.185,23.828C-31.308,23.828 -31.399,23.889 -31.459,24.01C-31.491,24.101 -31.505,24.252 -31.505,24.464C-31.505,24.677 -31.491,24.843 -31.459,24.964C-31.399,25.055 -31.308,25.101 -31.185,25.101L-20.007,25.101C-19.828,25.101 -19.737,24.888 -19.737,24.464M-70.91,-1.437C-70.79,-1.377 -70.681,-1.346 -70.593,-1.346C-70.439,-1.346 -70.274,-1.452 -70.091,-1.665C-69.122,-2.967 -67.851,-4.088 -66.274,-5.027C-64.669,-5.996 -63.246,-6.512 -62.003,-6.572C-61.701,-6.602 -61.322,-6.618 -60.869,-6.618C-59.717,-6.618 -58.853,-6.421 -58.277,-6.027C-57.67,-5.663 -57.368,-4.906 -57.368,-3.755L-57.368,20.965C-57.368,21.995 -57.687,22.738 -58.323,23.192C-58.959,23.616 -59.959,23.828 -61.322,23.828L-62.003,23.828C-62.186,23.828 -62.277,24.025 -62.277,24.419C-62.277,24.873 -62.186,25.101 -62.003,25.101L-49.143,25.101C-48.932,25.101 -48.827,24.873 -48.827,24.419C-48.827,24.025 -48.932,23.828 -49.143,23.828L-49.824,23.828C-51.159,23.828 -52.156,23.616 -52.824,23.192C-53.459,22.768 -53.779,22.026 -53.779,20.965L-53.779,-3.755C-53.779,-4.876 -53.491,-5.633 -52.915,-6.027C-52.339,-6.421 -51.461,-6.618 -50.281,-6.618C-49.796,-6.618 -49.417,-6.602 -49.143,-6.572C-47.9,-6.512 -46.492,-5.996 -44.918,-5.027C-43.313,-4.088 -42.024,-2.967 -41.055,-1.665C-40.873,-1.452 -40.708,-1.346 -40.556,-1.346C-40.465,-1.346 -40.36,-1.377 -40.237,-1.437C-39.935,-1.558 -39.784,-1.695 -39.784,-1.846L-39.829,-2.073L-41.737,-7.163C-41.919,-7.648 -42.281,-7.89 -42.829,-7.89L-68.321,-7.89C-68.865,-7.89 -69.228,-7.648 -69.41,-7.163L-71.32,-2.073L-71.366,-1.846C-71.366,-1.695 -71.212,-1.558 -70.91,-1.437M-115.36,-7.254C-115.36,-6.83 -115.255,-6.618 -115.044,-6.618L-114.317,-6.618C-112.951,-6.618 -111.968,-6.406 -111.363,-5.981C-110.756,-5.557 -110.454,-4.83 -110.454,-3.8L-110.454,20.193C-110.454,21.223 -110.861,22.086 -111.68,22.783C-112.467,23.48 -113.347,23.828 -114.317,23.828L-115.044,23.828C-115.223,23.828 -115.315,24.025 -115.315,24.419C-115.315,24.873 -115.223,25.101 -115.044,25.101L-103.954,25.101C-103.743,25.101 -103.637,24.873 -103.637,24.419C-103.637,24.025 -103.743,23.828 -103.954,23.828L-104.681,23.828C-105.622,23.828 -106.514,23.48 -107.363,22.783C-108.21,22.086 -108.635,21.223 -108.635,20.193L-108.635,-2.164C-108.635,-2.71 -108.453,-2.982 -108.091,-2.982C-107.877,-2.982 -107.666,-2.831 -107.455,-2.528L-88.505,24.51C-88.231,24.904 -87.915,25.101 -87.55,25.101C-87.399,25.101 -87.279,25.025 -87.188,24.873C-87.065,24.692 -87.005,24.449 -87.005,24.146L-87.005,-2.982C-87.005,-3.982 -86.612,-4.83 -85.822,-5.527C-85.007,-6.254 -84.112,-6.618 -83.143,-6.618L-82.416,-6.618C-82.173,-6.618 -82.054,-6.83 -82.054,-7.254C-82.054,-7.466 -82.082,-7.617 -82.142,-7.708C-82.173,-7.829 -82.264,-7.89 -82.416,-7.89L-93.411,-7.89C-93.654,-7.89 -93.776,-7.678 -93.776,-7.254C-93.776,-7.042 -93.762,-6.875 -93.731,-6.754C-93.671,-6.663 -93.565,-6.618 -93.411,-6.618L-92.73,-6.618C-92.154,-6.618 -91.564,-6.451 -90.96,-6.118C-90.324,-5.815 -89.808,-5.375 -89.414,-4.8C-88.99,-4.255 -88.779,-3.649 -88.779,-2.982L-88.779,15.831C-88.779,16.376 -88.958,16.649 -89.323,16.649C-89.534,16.649 -89.748,16.497 -89.959,16.194L-106.591,-7.299C-106.865,-7.693 -107.241,-7.89 -107.726,-7.89L-115.044,-7.89C-115.255,-7.89 -115.36,-7.678 -115.36,-7.254M-140.864,-7.254C-140.864,-6.83 -140.756,-6.618 -140.545,-6.618L-139.818,-6.618C-138.484,-6.618 -137.5,-6.406 -136.864,-5.981C-136.228,-5.557 -135.909,-4.815 -135.909,-3.755L-135.909,21.011C-135.909,22.01 -136.228,22.738 -136.864,23.192C-137.469,23.616 -138.455,23.828 -139.818,23.828L-140.545,23.828C-140.756,23.828 -140.864,24.04 -140.864,24.464C-140.864,24.888 -140.756,25.101 -140.545,25.101L-127.684,25.101C-127.442,25.101 -127.322,24.888 -127.322,24.464C-127.322,24.252 -127.351,24.101 -127.411,24.01C-127.442,23.889 -127.533,23.828 -127.684,23.828L-128.366,23.828C-129.76,23.828 -130.761,23.631 -131.365,23.237C-131.972,22.813 -132.274,22.071 -132.274,21.011L-132.274,-3.755C-132.274,-4.815 -131.986,-5.557 -131.411,-5.981C-130.806,-6.406 -129.791,-6.618 -128.366,-6.618L-127.684,-6.618C-127.442,-6.618 -127.322,-6.83 -127.322,-7.254C-127.322,-7.466 -127.351,-7.617 -127.411,-7.708C-127.442,-7.829 -127.533,-7.89 -127.684,-7.89L-140.545,-7.89C-140.756,-7.89 -140.864,-7.678 -140.864,-7.254M-185.551,-7.254C-185.551,-6.83 -185.445,-6.618 -185.233,-6.618L-184.551,-6.618C-183.188,-6.618 -182.204,-6.406 -181.598,-5.981C-180.962,-5.588 -180.643,-4.861 -180.643,-3.8L-180.643,15.149C-180.643,18.36 -179.598,20.935 -177.508,22.874C-175.418,24.783 -172.434,25.737 -168.556,25.737C-165.012,25.737 -162.285,24.722 -160.377,22.692C-158.468,20.663 -157.514,17.921 -157.514,14.467L-157.423,-2.982C-157.423,-4.012 -156.999,-4.876 -156.151,-5.573C-155.302,-6.269 -154.424,-6.618 -153.515,-6.618L-152.833,-6.618C-152.591,-6.618 -152.47,-6.83 -152.47,-7.254C-152.47,-7.466 -152.5,-7.617 -152.561,-7.708C-152.591,-7.829 -152.682,-7.89 -152.833,-7.89L-163.876,-7.89C-164.088,-7.89 -164.194,-7.678 -164.194,-7.254C-164.194,-6.83 -164.088,-6.618 -163.876,-6.618L-163.194,-6.618C-162.285,-6.618 -161.407,-6.269 -160.558,-5.573C-159.71,-4.876 -159.286,-4.012 -159.286,-2.982L-159.286,13.149C-159.286,16.391 -159.937,19.011 -161.24,21.011C-162.512,23.01 -164.951,24.01 -168.556,24.01C-171.888,24.01 -174.13,22.95 -175.281,20.829C-176.433,18.709 -177.008,16.149 -177.008,13.149L-177.008,11.968C-177.008,11.362 -177.023,10.014 -177.054,7.924L-177.054,-3.8C-177.054,-4.861 -176.736,-5.588 -176.099,-5.981C-175.463,-6.406 -174.463,-6.618 -173.1,-6.618L-172.419,-6.618C-172.176,-6.618 -172.055,-6.83 -172.055,-7.254C-172.055,-7.466 -172.086,-7.617 -172.146,-7.708C-172.176,-7.829 -172.267,-7.89 -172.419,-7.89L-185.233,-7.89C-185.445,-7.89 -185.551,-7.678 -185.551,-7.254M-222.941,0.244C-221.911,-2.088 -220.593,-3.831 -218.987,-4.982C-217.351,-6.163 -215.624,-6.754 -213.807,-6.754C-212.02,-6.754 -210.323,-6.163 -208.717,-4.982C-207.082,-3.831 -205.764,-2.088 -204.764,0.244C-203.734,2.577 -203.219,5.394 -203.219,8.696C-203.219,11.453 -203.552,13.877 -204.219,15.967C-204.885,18.027 -205.809,19.723 -206.991,21.056C-207.172,21.268 -207.385,21.374 -207.627,21.374C-207.93,21.374 -208.172,21.208 -208.354,20.875C-210.626,17.33 -213.231,15.558 -216.17,15.558C-217.261,15.558 -218.215,15.815 -219.033,16.33C-219.82,16.815 -220.441,17.482 -220.896,18.33C-221.078,18.754 -221.32,18.966 -221.623,18.966C-221.835,18.966 -222.032,18.799 -222.214,18.466C-223.698,15.8 -224.44,12.544 -224.44,8.696C-224.44,5.394 -223.94,2.577 -222.941,0.244M-211.217,23.828C-212.065,24.101 -212.928,24.237 -213.807,24.237C-214.867,24.237 -215.867,24.04 -216.806,23.647C-217.745,23.222 -218.503,22.723 -219.078,22.147C-219.623,21.541 -219.896,20.98 -219.896,20.466C-219.896,19.648 -219.578,18.89 -218.942,18.193C-218.306,17.467 -217.427,17.103 -216.306,17.103C-215.216,17.103 -214.216,17.482 -213.307,18.239C-212.398,18.996 -211.52,20.435 -210.671,22.556C-210.611,22.798 -210.581,22.965 -210.581,23.056C-210.581,23.419 -210.793,23.677 -211.217,23.828M-228.666,8.696C-228.666,12.271 -227.924,15.346 -226.44,17.921C-224.955,20.496 -223.077,22.45 -220.805,23.783C-218.503,25.085 -216.17,25.737 -213.807,25.737C-212.777,25.737 -211.716,25.601 -210.626,25.328C-210.535,25.298 -210.399,25.282 -210.217,25.282C-209.884,25.282 -209.626,25.495 -209.445,25.918C-208.748,27.555 -207.945,28.796 -207.036,29.645C-206.097,30.493 -204.885,30.917 -203.401,30.917C-201.583,30.917 -199.705,29.948 -197.766,28.009C-197.615,27.857 -197.539,27.721 -197.539,27.6C-197.539,27.479 -197.615,27.342 -197.766,27.191C-197.917,27.039 -198.054,26.964 -198.175,26.964C-198.296,26.964 -198.448,27.024 -198.629,27.145C-199.023,27.418 -199.387,27.615 -199.72,27.736C-200.023,27.857 -200.402,27.918 -200.856,27.918C-202.765,27.918 -204.537,26.782 -206.173,24.51C-206.324,24.268 -206.4,24.071 -206.4,23.919C-206.4,23.616 -206.233,23.374 -205.9,23.192C-203.81,21.738 -202.143,19.784 -200.901,17.33C-199.629,14.876 -198.993,11.998 -198.993,8.696C-198.993,5.121 -199.735,2.047 -201.22,-0.528C-202.704,-3.103 -204.582,-5.042 -206.854,-6.345C-209.126,-7.678 -211.444,-8.344 -213.807,-8.344C-216.17,-8.344 -218.503,-7.678 -220.805,-6.345C-223.077,-5.042 -224.955,-3.103 -226.44,-0.528C-227.924,2.047 -228.666,5.121 -228.666,8.696M-271.496,11.468L-280.494,11.468C-280.766,11.468 -280.979,11.408 -281.13,11.286C-281.282,11.165 -281.357,10.999 -281.357,10.787C-281.357,10.696 -281.327,10.559 -281.266,10.378C-279.509,5.409 -277.782,0.699 -276.086,-3.755C-276.025,-3.906 -275.904,-3.876 -275.722,-3.664C-275.541,-3.452 -275.389,-3.134 -275.268,-2.71L-270.724,10.378L-270.633,10.741C-270.633,11.226 -270.921,11.468 -271.496,11.468M-258.455,23.828C-260.939,23.828 -262.665,22.526 -263.635,19.92C-263.998,19.011 -265.226,15.573 -267.316,9.605C-269.376,3.637 -270.921,-0.816 -271.951,-3.755L-273.496,-8.253C-273.526,-8.375 -273.617,-8.481 -273.768,-8.572C-273.829,-8.632 -273.95,-8.663 -274.132,-8.663C-274.314,-8.663 -274.526,-8.617 -274.768,-8.526L-275.541,-8.299C-275.995,-8.147 -276.313,-7.845 -276.495,-7.39L-286.719,19.739C-287.295,21.193 -288.037,22.238 -288.946,22.874C-289.855,23.51 -290.748,23.828 -291.627,23.828C-291.748,23.828 -291.839,23.889 -291.9,24.01C-291.93,24.101 -291.945,24.252 -291.945,24.464C-291.945,24.677 -291.93,24.843 -291.9,24.964C-291.839,25.055 -291.748,25.101 -291.627,25.101L-280.448,25.101C-280.267,25.101 -280.176,24.888 -280.176,24.464C-280.176,24.313 -280.191,24.177 -280.221,24.055C-280.252,23.904 -280.327,23.828 -280.448,23.828C-283.326,23.828 -284.765,22.889 -284.765,21.011C-284.765,20.435 -284.629,19.769 -284.356,19.011L-283.357,16.103L-282.584,13.967C-282.402,13.452 -282.039,13.195 -281.493,13.195L-270.587,13.195C-270.042,13.195 -269.679,13.452 -269.497,13.967L-267.27,20.375C-267.149,20.708 -267.089,21.056 -267.089,21.42C-267.089,22.329 -267.513,22.965 -268.361,23.328C-269.209,23.662 -270.209,23.828 -271.36,23.828C-271.481,23.828 -271.572,23.889 -271.633,24.01C-271.663,24.101 -271.678,24.252 -271.678,24.464C-271.678,24.677 -271.663,24.843 -271.633,24.964C-271.572,25.055 -271.481,25.101 -271.36,25.101L-258.455,25.101C-258.273,25.101 -258.182,24.888 -258.182,24.464C-258.182,24.313 -258.197,24.177 -258.227,24.055C-258.258,23.904 -258.333,23.828 -258.455,23.828M-302.029,17.103C-302.211,17.012 -302.347,16.966 -302.438,16.966C-302.59,16.966 -302.711,17.042 -302.802,17.194C-304.195,19.163 -305.725,20.738 -307.391,21.92C-309.058,23.071 -311.224,23.677 -313.889,23.737L-315.707,23.783L-316.752,23.737C-318.146,23.677 -319.161,23.465 -319.797,23.101C-320.403,22.707 -320.706,21.995 -320.706,20.965L-320.706,-3.755C-320.706,-4.785 -320.387,-5.512 -319.751,-5.936C-319.115,-6.39 -318.116,-6.618 -316.752,-6.618L-316.071,-6.618C-315.828,-6.618 -315.707,-6.83 -315.707,-7.254C-315.707,-7.466 -315.737,-7.617 -315.798,-7.708C-315.828,-7.829 -315.919,-7.89 -316.071,-7.89L-328.976,-7.89C-329.188,-7.89 -329.294,-7.678 -329.294,-7.254C-329.294,-6.83 -329.188,-6.618 -328.976,-6.618L-328.249,-6.618C-326.916,-6.618 -325.932,-6.406 -325.295,-5.981C-324.659,-5.557 -324.341,-4.815 -324.341,-3.755L-324.341,20.965C-324.341,22.026 -324.644,22.768 -325.25,23.192C-325.856,23.586 -326.855,23.783 -328.249,23.783L-328.976,23.783C-329.188,23.783 -329.294,24.01 -329.294,24.464C-329.294,24.677 -329.279,24.843 -329.248,24.964C-329.188,25.055 -329.097,25.101 -328.976,25.101L-305.256,25.101C-304.71,25.101 -304.347,24.843 -304.165,24.328L-301.711,17.785L-301.666,17.557C-301.666,17.376 -301.787,17.224 -302.029,17.103M-100.895,-55.128C-100.567,-56.161 -100.094,-56.935 -99.472,-57.452C-98.837,-57.986 -98.061,-58.252 -97.149,-58.252C-96.237,-58.252 -95.47,-57.986 -94.851,-57.452C-94.215,-56.935 -93.742,-56.161 -93.431,-55.128C-93.104,-54.095 -92.941,-52.83 -92.941,-51.332C-92.941,-49.834 -93.104,-48.569 -93.431,-47.536C-93.742,-46.503 -94.215,-45.72 -94.851,-45.186C-95.47,-44.669 -96.237,-44.411 -97.149,-44.411C-98.061,-44.411 -98.837,-44.669 -99.472,-45.186C-100.094,-45.72 -100.567,-46.503 -100.895,-47.536C-101.203,-48.569 -101.36,-49.834 -101.36,-51.332C-101.36,-52.83 -101.203,-54.095 -100.895,-55.128M-97.149,-42.552C-95.205,-42.552 -93.662,-43.301 -92.528,-44.799C-91.373,-46.297 -90.797,-48.474 -90.797,-51.332C-90.797,-54.19 -91.373,-56.367 -92.528,-57.865C-93.662,-59.363 -95.205,-60.112 -97.149,-60.112C-99.079,-60.112 -100.618,-59.363 -101.773,-57.865C-102.925,-56.367 -103.501,-54.19 -103.501,-51.332C-103.501,-48.474 -102.925,-46.297 -101.773,-44.799C-100.618,-43.301 -99.079,-42.552 -97.149,-42.552M-119.95,-57.013C-119.246,-57.787 -118.308,-58.175 -117.136,-58.175C-116.019,-58.175 -115.141,-57.856 -114.502,-57.22C-113.849,-56.6 -113.521,-55.782 -113.521,-54.766C-113.521,-54.009 -113.667,-53.277 -113.96,-52.571C-114.254,-51.883 -114.744,-51.151 -115.431,-50.376C-116.121,-49.602 -117.042,-48.741 -118.194,-47.794C-119.331,-46.847 -120.751,-45.745 -122.456,-44.489L-122.456,-42.81L-110.99,-42.81L-110.99,-44.747L-116.957,-44.747C-117.128,-44.747 -117.387,-44.739 -117.729,-44.721C-118.057,-44.721 -118.394,-44.713 -118.738,-44.695C-119.063,-44.695 -119.323,-44.687 -119.511,-44.669L-119.511,-44.695C-117.481,-46.055 -115.87,-47.295 -114.685,-48.414C-113.496,-49.533 -112.643,-50.6 -112.127,-51.616C-111.611,-52.649 -111.352,-53.699 -111.352,-54.766C-111.352,-55.558 -111.489,-56.281 -111.765,-56.935C-112.025,-57.59 -112.401,-58.149 -112.903,-58.614C-113.402,-59.096 -114.003,-59.466 -114.71,-59.724C-115.397,-59.982 -116.181,-60.112 -117.059,-60.112C-118.211,-60.112 -119.212,-59.897 -120.055,-59.466C-120.879,-59.036 -121.544,-58.442 -122.043,-57.684C-122.524,-56.927 -122.844,-56.049 -122.998,-55.05L-121.19,-53.966C-121.07,-55.24 -120.657,-56.255 -119.95,-57.013M-133.486,-52.726C-133.797,-52.21 -134.236,-51.797 -134.803,-51.487C-135.356,-51.194 -136,-51.048 -136.742,-51.048C-137.876,-51.048 -138.78,-51.341 -139.453,-51.926C-140.123,-52.528 -140.459,-53.337 -140.459,-54.353C-140.459,-55.541 -140.14,-56.462 -139.504,-57.116C-138.868,-57.787 -137.945,-58.123 -136.742,-58.123C-136,-58.123 -135.356,-57.977 -134.803,-57.684C-134.236,-57.391 -133.797,-56.978 -133.486,-56.445C-133.178,-55.911 -133.021,-55.283 -133.021,-54.56C-133.021,-53.871 -133.178,-53.26 -133.486,-52.726M-132.066,-52.029C-132.066,-50.893 -132.143,-49.86 -132.3,-48.93C-132.437,-48.001 -132.679,-47.2 -133.021,-46.529C-133.366,-45.875 -133.839,-45.367 -134.444,-45.005C-135.028,-44.661 -135.769,-44.489 -136.665,-44.489C-137.765,-44.489 -138.635,-44.764 -139.27,-45.315C-139.892,-45.866 -140.339,-46.589 -140.613,-47.484L-142.654,-46.4C-142.155,-45.143 -141.397,-44.187 -140.382,-43.533C-139.367,-42.879 -138.153,-42.552 -136.742,-42.552C-135.313,-42.552 -134.116,-42.888 -133.152,-43.559C-132.169,-44.23 -131.43,-45.212 -130.932,-46.503C-130.433,-47.811 -130.182,-49.421 -130.182,-51.332C-130.182,-53.053 -130.433,-54.568 -130.932,-55.877C-131.43,-57.202 -132.169,-58.235 -133.152,-58.975C-134.133,-59.733 -135.339,-60.112 -136.767,-60.112C-137.99,-60.112 -139.039,-59.871 -139.918,-59.389C-140.796,-58.924 -141.466,-58.261 -141.93,-57.4C-142.395,-56.557 -142.629,-55.55 -142.629,-54.379C-142.629,-53.295 -142.386,-52.356 -141.905,-51.564C-141.423,-50.772 -140.753,-50.153 -139.892,-49.705C-139.031,-49.275 -138.042,-49.06 -136.921,-49.06C-136.286,-49.06 -135.647,-49.163 -135.011,-49.369C-134.355,-49.576 -133.771,-49.912 -133.255,-50.376C-132.739,-50.858 -132.377,-51.487 -132.169,-52.261L-132.066,-52.261L-132.066,-52.029ZM-155.247,-55.799C-154.472,-56.229 -153.792,-56.729 -153.207,-57.297C-153.224,-56.935 -153.241,-56.582 -153.258,-56.238L-153.258,-42.81L-151.193,-42.81L-151.193,-59.854L-153,-59.854C-153.241,-59.526 -153.585,-59.191 -154.033,-58.846C-154.481,-58.502 -154.971,-58.175 -155.505,-57.865C-156.021,-57.572 -156.521,-57.323 -157.003,-57.116C-157.467,-56.927 -157.855,-56.815 -158.165,-56.781L-157.622,-54.895C-156.813,-55.085 -156.021,-55.386 -155.247,-55.799M-178.614,-42.552C-178.115,-42.552 -177.711,-42.707 -177.401,-43.017C-177.091,-43.327 -176.936,-43.731 -176.936,-44.23C-176.936,-44.73 -177.091,-45.135 -177.401,-45.444C-177.711,-45.754 -178.115,-45.909 -178.614,-45.909C-179.113,-45.909 -179.518,-45.754 -179.828,-45.444C-180.138,-45.135 -180.293,-44.73 -180.293,-44.23C-180.293,-43.731 -180.138,-43.327 -179.828,-43.017C-179.518,-42.707 -179.113,-42.552 -178.614,-42.552M-192.578,-42.81L-190.513,-42.81L-190.513,-57.917L-184.573,-57.917L-184.573,-59.854L-198.518,-59.854L-198.518,-57.917L-192.578,-57.917L-192.578,-42.81ZM-208.391,-44.799C-209.028,-44.592 -209.785,-44.489 -210.663,-44.489C-211.61,-44.489 -212.454,-44.626 -213.194,-44.902C-213.917,-45.177 -214.537,-45.565 -215.053,-46.064C-215.57,-46.563 -215.992,-47.14 -216.319,-47.794L-218.126,-46.322C-217.696,-45.616 -217.145,-44.979 -216.473,-44.411C-215.802,-43.843 -215.002,-43.387 -214.072,-43.043C-213.125,-42.716 -212.032,-42.552 -210.793,-42.552C-209.467,-42.552 -208.313,-42.759 -207.332,-43.172C-206.351,-43.585 -205.593,-44.162 -205.06,-44.902C-204.509,-45.659 -204.234,-46.52 -204.234,-47.484C-204.234,-48.569 -204.561,-49.473 -205.215,-50.196C-205.852,-50.936 -206.988,-51.487 -208.623,-51.848L-212.316,-52.675C-213.452,-52.933 -214.21,-53.286 -214.589,-53.733C-214.967,-54.198 -215.157,-54.732 -215.157,-55.334C-215.157,-55.868 -215.019,-56.342 -214.744,-56.755C-214.468,-57.185 -214.038,-57.529 -213.452,-57.787C-212.85,-58.046 -212.092,-58.175 -211.18,-58.175C-210.044,-58.175 -209.08,-57.943 -208.288,-57.478C-207.479,-57.03 -206.755,-56.255 -206.119,-55.154L-204.388,-56.496C-205.112,-57.684 -206.015,-58.579 -207.1,-59.182C-208.185,-59.802 -209.475,-60.112 -210.973,-60.112C-212.282,-60.112 -213.418,-59.879 -214.382,-59.414C-215.329,-58.95 -216.06,-58.33 -216.577,-57.555C-217.076,-56.798 -217.326,-55.963 -217.326,-55.05C-217.326,-54.379 -217.188,-53.751 -216.912,-53.165C-216.62,-52.597 -216.155,-52.098 -215.518,-51.668C-214.864,-51.254 -214.012,-50.927 -212.962,-50.686L-208.959,-49.783C-207.961,-49.559 -207.281,-49.223 -206.919,-48.775C-206.558,-48.345 -206.377,-47.854 -206.377,-47.303C-206.377,-46.701 -206.549,-46.184 -206.893,-45.754C-207.237,-45.341 -207.737,-45.022 -208.391,-44.799M-224.703,-44.747L-234.981,-44.747L-234.981,-50.48L-227.285,-50.48L-227.285,-52.416L-234.981,-52.416L-234.981,-57.917L-225.09,-57.917L-225.09,-59.854L-237.046,-59.854L-237.046,-42.81L-224.703,-42.81L-224.703,-44.747ZM-46.8,113.738C-47.638,114.811 -49.214,116.186 -50.187,115.918C-50.891,115.717 -50.187,114.174 -49.383,113.269C-48.61,112.43 -47.772,111.861 -47.202,111.626C-47.133,111.592 -47.102,111.592 -47.034,111.525L-46.968,111.424C-46.834,111.659 -46.563,111.894 -46.061,112.229C-46.127,112.632 -46.429,113.202 -46.8,113.738M-32.753,110.385C-33.187,110.351 -33.691,110.351 -34.193,110.351C-35.066,110.351 -36.006,110.385 -36.844,110.519C-38.008,110.708 -39.29,111.074 -39.832,111.867C-40.59,112.014 -41.442,112.129 -42.273,112.129C-43.245,112.129 -44.217,111.995 -45.089,111.592L-45.089,111.559C-45.123,111.089 -45.423,110.72 -46.061,110.485C-46.195,110.452 -46.295,110.418 -46.398,110.418C-46.766,110.418 -46.999,110.553 -47.102,110.922L-47.133,110.888C-47.302,110.787 -47.504,110.754 -47.704,110.821C-49.246,111.525 -50.42,112.833 -51.025,114.007C-51.293,114.577 -51.461,115.18 -51.392,115.684C-51.361,116.254 -50.991,116.723 -50.252,116.824C-48.576,117.025 -46.766,115.315 -45.962,114.275C-45.591,113.805 -45.323,113.236 -45.155,112.699L-45.123,112.632C-44.217,112.9 -43.245,113.068 -42.138,113.068C-41.483,113.068 -40.789,113.011 -40.029,112.883C-39.961,113.169 -39.8,113.431 -39.593,113.638C-39.191,114.04 -38.621,114.376 -38.05,114.677C-37.48,114.946 -36.844,115.18 -36.274,115.415L-36.038,115.482L-36.34,115.549C-36.742,115.617 -37.247,115.65 -37.748,115.65C-39.156,115.65 -40.565,115.449 -41.203,115.113C-41.437,115.013 -41.739,115.113 -41.873,115.348C-42.007,115.583 -41.908,115.885 -41.64,116.019C-40.801,116.455 -39.156,116.656 -37.748,116.656C-37.044,116.656 -36.309,116.589 -35.738,116.455C-35.2,116.354 -34.598,116.153 -34.296,115.751C-34.128,115.482 -34.227,115.113 -34.495,114.979C-35.168,114.711 -36.508,114.309 -37.614,113.772C-38.184,113.504 -38.621,113.236 -38.857,112.967C-39.01,112.813 -39.062,112.703 -39.061,112.608C-38.996,112.535 -38.953,112.441 -38.94,112.337C-38.825,112.21 -38.611,112.078 -38.287,111.928C-37.882,111.76 -37.312,111.626 -36.71,111.525C-36.072,111.424 -35.368,111.391 -34.698,111.357L-34.262,111.357L-34.361,111.458L-34.495,111.726C-34.53,111.827 -34.564,111.928 -34.564,112.095C-34.53,112.363 -34.296,112.565 -34.028,112.565C-33.791,112.531 -33.592,112.363 -33.557,112.129L-33.557,112.095L-33.523,112.028C-33.458,111.961 -33.355,111.827 -33.156,111.693L-32.585,111.324C-32.115,111.123 -32.215,110.418 -32.753,110.385M-55.743,112.028C-57.351,113.37 -58.827,114.376 -60.002,114.946C-60.672,115.281 -61.242,115.415 -61.644,115.449C-62.012,115.449 -62.214,115.348 -62.314,115.147C-62.551,114.811 -62.012,113.705 -60.37,112.766C-59.229,112.095 -57.753,111.659 -56.344,111.827L-55.64,111.961L-55.743,112.028ZM-47.929,105.791L-47.19,104.952C-45.848,103.376 -43.099,100.391 -42.024,98.882C-41.657,98.379 -42.395,97.775 -42.831,98.278C-42.897,98.345 -46.05,101.8 -48.331,104.65L-48.698,105.12L-49.337,105.857C-50.979,107.635 -52.69,109.345 -54.366,110.821L-54.737,111.19L-54.936,111.089C-55.609,110.854 -56.245,110.787 -56.915,110.787C-58.357,110.787 -59.765,111.257 -60.872,111.894C-62.517,112.833 -63.959,114.476 -63.186,115.684C-62.819,116.254 -62.249,116.455 -61.61,116.455C-61.006,116.421 -60.301,116.22 -59.566,115.851C-58.089,115.147 -56.279,113.839 -54.4,112.229L-53.696,111.592L-54.366,112.464C-55.877,114.51 -57.317,116.522 -58.457,118.232C-59.229,119.373 -59.865,120.412 -60.301,121.217C-60.672,121.955 -61.006,122.726 -60.906,123.263C-60.872,123.531 -60.706,123.799 -60.37,123.9C-60.102,123.967 -59.834,123.833 -59.731,123.565C-59.7,123.363 -59.765,123.129 -59.899,123.028L-59.934,123.028L-59.934,122.961C-59.899,122.793 -59.765,122.391 -59.398,121.687C-58.996,120.915 -58.391,119.909 -57.619,118.802C-56.145,116.522 -54.064,113.738 -52.02,111.022C-50.711,109.312 -49.403,107.635 -48.231,106.159L-47.929,105.791ZM-108.877,111.156C-109.547,111.861 -111.694,113.034 -112.333,112.766C-111.494,111.995 -110.186,110.988 -108.877,111.156M-77.469,111.156C-78.119,111.836 -80.137,112.95 -80.85,112.785C-80.853,112.76 -80.858,112.736 -80.865,112.712C-80.026,111.949 -78.748,110.992 -77.469,111.156M-63.717,110.653C-65.325,110.351 -69.048,111.961 -70.556,112.732L-69.45,111.424C-69.282,111.223 -69.316,110.888 -69.518,110.72C-69.718,110.553 -70.054,110.553 -70.222,110.787C-70.692,111.298 -71.113,111.759 -71.492,112.176C-71.98,112.458 -73.336,113.314 -74.821,114.074C-75.425,114.409 -78.678,115.851 -80.588,115.851C-81.261,115.851 -81.763,115.65 -81.965,115.18C-82.065,114.879 -81.996,114.409 -81.729,113.873L-81.595,113.638C-80.255,114.309 -76.834,112.296 -76.397,111.391C-76.263,111.055 -76.329,110.653 -76.665,110.418L-76.933,110.284C-77.806,109.915 -78.946,110.251 -79.918,110.787C-80.766,111.255 -81.614,111.953 -82.195,112.748C-83.947,113.792 -85.971,114.99 -88.077,115.08C-88.28,115.046 -88.582,115.013 -88.648,114.811C-88.716,114.543 -88.582,114.04 -88.177,113.37C-87.809,112.766 -87.373,112.229 -87.205,111.995C-86.803,111.492 -87.541,110.888 -87.978,111.357C-88.85,112.33 -90.358,113.537 -91.766,114.342C-92.471,114.778 -93.141,115.08 -93.645,115.18C-94.215,115.348 -94.449,115.248 -94.518,115.18C-94.552,115.113 -94.617,114.979 -94.483,114.611C-94.43,114.412 -94.325,114.194 -94.189,113.967C-93.538,113.561 -93.072,113.234 -92.844,113.101C-92.607,112.967 -92.508,112.665 -92.642,112.43C-92.67,112.374 -92.706,112.329 -92.747,112.291C-92.711,112.26 -92.674,112.224 -92.639,112.196C-92.237,111.861 -91.935,111.693 -91.801,111.659C-91.533,111.626 -91.365,111.357 -91.433,111.089C-91.498,110.787 -91.766,110.62 -92.034,110.687C-92.436,110.787 -92.872,111.089 -93.274,111.424C-93.711,111.793 -94.181,112.263 -94.552,112.732C-94.678,112.89 -94.794,113.052 -94.903,113.214C-95.346,113.485 -95.859,113.782 -96.43,114.074C-97.973,114.879 -99.852,115.617 -101.864,115.751C-102.836,115.784 -103.138,115.449 -103.238,115.18C-103.443,114.581 -103.019,113.772 -102.407,113.057C-102.395,113.049 -102.382,113.041 -102.372,113.034C-102.266,112.973 -102.188,112.877 -102.146,112.769C-101.609,112.208 -100.986,111.736 -100.521,111.525C-99.717,111.156 -99.247,110.955 -98.711,111.089C-98.914,111.458 -99.216,111.726 -99.35,111.861C-99.852,112.296 -99.247,112.665 -98.879,112.464C-98.477,112.296 -97.941,111.961 -97.673,111.391C-97.537,111.055 -97.605,110.653 -97.941,110.418L-98.209,110.284C-99.082,109.915 -100.222,110.251 -101.194,110.787C-101.876,111.164 -102.555,111.69 -103.098,112.294C-103.699,112.653 -104.912,113.401 -106.229,114.074C-106.833,114.409 -110.086,115.851 -111.996,115.851C-112.666,115.851 -113.171,115.65 -113.37,115.18C-113.473,114.879 -113.405,114.409 -113.136,113.873L-113.003,113.638C-111.66,114.309 -108.242,112.296 -107.805,111.391C-107.671,111.055 -107.737,110.653 -108.073,110.418L-108.341,110.284C-109.214,109.915 -110.354,110.251 -111.326,110.787C-112.298,111.324 -113.271,112.162 -113.841,113.101C-114.311,113.839 -114.579,114.745 -114.311,115.516C-113.975,116.455 -113.071,116.79 -111.962,116.79C-109.815,116.79 -106.933,115.549 -105.724,114.946C-105.172,114.664 -104.642,114.374 -104.168,114.106C-104.306,114.582 -104.334,115.071 -104.179,115.516C-103.877,116.354 -103.039,116.79 -101.796,116.757C-99.419,116.592 -97.213,115.66 -95.566,114.77C-95.611,115.155 -95.545,115.56 -95.222,115.885C-94.954,116.186 -94.552,116.287 -94.147,116.287C-93.243,116.287 -92.137,115.751 -91.265,115.214C-90.894,115.013 -90.492,114.778 -90.124,114.51L-89.62,114.141L-89.62,114.208C-89.688,114.51 -89.688,114.811 -89.62,115.113C-89.386,115.818 -88.716,116.052 -88.112,116.052C-86.549,116.147 -84.602,115.271 -82.953,114.346C-83.034,114.745 -83.032,115.146 -82.903,115.516C-82.567,116.455 -81.663,116.79 -80.557,116.79C-78.41,116.79 -75.525,115.549 -74.319,114.946C-74.081,114.824 -73.848,114.701 -73.621,114.579C-74.534,115.652 -74.758,116.014 -74.815,116.186C-75.052,116.69 -74.348,117.126 -73.977,116.69C-73.039,115.717 -72.671,115.248 -72.335,115.013C-70.422,113.671 -67.035,111.827 -64.452,111.559L-64.318,111.559L-64.421,111.659C-64.923,112.397 -63.816,112.397 -63.346,111.793C-63.044,111.424 -63.078,110.787 -63.717,110.653M-114.807,110.653C-116.415,110.351 -120.138,111.961 -121.646,112.732L-120.54,111.424C-120.372,111.223 -120.406,110.888 -120.609,110.72C-120.808,110.553 -121.145,110.553 -121.313,110.787C-125.201,115.013 -125.806,115.885 -125.905,116.186C-126.142,116.69 -125.438,117.126 -125.067,116.69C-124.129,115.717 -123.762,115.248 -123.425,115.013C-121.512,113.671 -118.125,111.827 -115.543,111.559L-115.409,111.559L-115.511,111.659C-116.013,112.397 -114.907,112.397 -114.436,111.793C-114.134,111.424 -114.168,110.787 -114.807,110.653M-147.424,111.156C-148.097,111.861 -150.241,113.034 -150.879,112.766C-150.041,111.995 -148.732,110.988 -147.424,111.156M-135.484,112.296C-136.861,113.001 -145.545,115.851 -149.839,115.851C-150.508,115.851 -151.113,115.784 -151.516,115.617C-152.187,115.348 -152.053,114.409 -151.55,113.638C-150.209,114.309 -146.788,112.296 -146.352,111.391C-146.218,111.055 -146.283,110.653 -146.62,110.418L-146.888,110.284C-147.76,109.915 -148.901,110.251 -149.873,110.787C-150.845,111.324 -151.818,112.162 -152.388,113.101C-152.857,113.839 -153.092,114.711 -152.891,115.482C-152.656,116.287 -151.583,116.891 -149.839,116.824C-145.112,116.623 -138.572,114.711 -135.083,113.236C-134.814,113.101 -134.715,112.833 -134.814,112.565C-134.914,112.296 -135.216,112.162 -135.484,112.296M-157.038,112.028C-158.648,113.37 -160.123,114.376 -161.297,114.946C-161.968,115.281 -162.538,115.415 -162.94,115.449C-163.309,115.449 -163.51,115.348 -163.611,115.147C-163.846,114.811 -163.309,113.705 -161.666,112.766C-160.526,112.095 -159.05,111.659 -157.642,111.827L-156.937,111.961L-157.038,112.028ZM-149.223,105.791L-148.487,104.952C-147.144,103.376 -144.393,100.391 -143.321,98.882C-142.954,98.379 -143.689,97.775 -144.125,98.278C-144.194,98.345 -147.347,101.8 -149.628,104.65L-149.995,105.12L-150.634,105.857C-152.276,107.635 -153.986,109.345 -155.663,110.821L-156.032,111.19L-156.233,111.089C-156.904,110.854 -157.541,110.787 -158.212,110.787C-159.654,110.787 -161.062,111.257 -162.169,111.894C-163.812,112.833 -165.254,114.476 -164.483,115.684C-164.114,116.254 -163.544,116.455 -162.907,116.455C-162.303,116.421 -161.599,116.22 -160.861,115.851C-159.385,115.147 -157.575,113.839 -155.696,112.229L-154.992,111.592L-155.663,112.464C-157.172,114.51 -158.614,116.522 -159.754,118.232C-160.526,119.373 -161.163,120.412 -161.599,121.217C-161.968,121.955 -162.303,122.726 -162.202,123.263C-162.169,123.531 -162.001,123.799 -161.666,123.9C-161.398,123.967 -161.129,123.833 -161.029,123.565C-160.995,123.363 -161.062,123.129 -161.196,123.028L-161.23,123.028L-161.23,122.961C-161.196,122.793 -161.062,122.391 -160.694,121.687C-160.291,120.915 -159.687,119.909 -158.916,118.802C-157.44,116.522 -155.361,113.738 -153.315,111.022C-152.007,109.312 -150.699,107.635 -149.525,106.159L-149.223,105.791ZM-188.149,113.738C-188.987,114.811 -190.563,116.186 -191.536,115.918C-192.24,115.717 -191.536,114.174 -190.731,113.269C-189.96,112.43 -189.121,111.861 -188.551,111.626C-188.484,111.592 -188.451,111.592 -188.384,111.525L-188.316,111.424C-188.182,111.659 -187.914,111.894 -187.411,112.229C-187.478,112.632 -187.78,113.202 -188.149,113.738M-209.614,118.232C-209.983,118.769 -210.385,119.272 -210.788,119.808C-214.108,124.202 -217.998,128.327 -220.849,128.83C-221.352,128.93 -221.788,128.662 -221.956,128.193C-222.09,127.723 -222.023,126.885 -221.084,125.845C-219.172,123.598 -214.947,120.748 -210.453,118.4L-209.312,117.796L-209.614,118.232ZM-207.502,112.867L-208.742,113.571C-209.614,114.04 -210.453,114.443 -211.123,114.677C-211.492,114.811 -211.761,114.879 -211.995,114.879C-212.197,114.879 -212.264,114.845 -212.264,114.845L-212.364,114.677C-212.465,114.174 -212.029,113.403 -211.023,112.799C-210.352,112.43 -209.547,112.162 -208.642,112.162C-208.139,112.162 -207.602,112.263 -207.066,112.43L-206.931,112.498L-207.502,112.867ZM-232.195,122.022C-233.033,123.9 -234.106,125.61 -235.146,126.717C-236.219,127.924 -236.856,128.058 -237.057,127.857L-236.99,127.891L-237.091,127.757C-237.292,127.187 -237.259,126.147 -236.755,124.638C-236.252,122.927 -235.313,120.915 -234.106,118.802C-233.536,117.696 -232.899,116.623 -232.195,115.583L-231.39,114.242L-231.188,114.51C-230.92,115.08 -230.786,115.784 -230.786,116.589C-230.786,118.232 -231.39,120.177 -232.195,122.022M-237.062,111.156C-237.733,111.861 -239.879,113.034 -240.516,112.766C-239.677,111.995 -238.37,110.988 -237.062,111.156M-175.237,111.492C-176.277,111.726 -179.664,111.995 -182.481,111.995C-184.258,111.995 -185.801,111.894 -186.438,111.592L-186.438,111.559C-186.472,111.089 -186.774,110.72 -187.411,110.485C-187.545,110.452 -187.646,110.418 -187.746,110.418C-188.115,110.418 -188.35,110.553 -188.451,110.922L-188.484,110.888C-188.652,110.787 -188.853,110.754 -189.054,110.821C-189.765,111.145 -190.393,111.601 -190.927,112.109C-191.002,112.12 -191.077,112.146 -191.146,112.196C-191.582,112.464 -194.231,113.94 -195.673,114.51C-196.512,114.845 -199.195,115.717 -199.698,115.046C-200,114.644 -198.792,113.37 -198.491,113.068C-197.35,111.928 -195.942,110.854 -195.875,110.821C-195.64,110.653 -195.573,110.351 -195.74,110.116C-195.908,109.882 -196.21,109.815 -196.445,109.982C-196.545,110.049 -198.021,111.156 -199.195,112.363C-199.325,112.494 -199.478,112.648 -199.635,112.82C-201.328,113.242 -204.347,114.456 -206.328,115.281L-206.361,115.315L-206.261,115.18C-204.986,113.236 -204.181,111.861 -204.114,111.793C-203.846,111.324 -204.416,110.787 -204.852,111.123C-205.053,111.257 -205.389,111.525 -205.858,111.827L-205.925,111.861L-205.959,111.827C-206.864,111.357 -207.77,111.156 -208.642,111.156C-209.748,111.156 -210.721,111.492 -211.526,111.928C-211.728,112.048 -211.921,112.18 -212.101,112.322C-212.162,112.333 -212.222,112.357 -212.278,112.397C-214.157,113.504 -216.404,114.979 -218.751,115.08C-218.952,115.046 -219.254,115.013 -219.321,114.811C-219.388,114.543 -219.254,114.04 -218.852,113.37C-218.483,112.766 -218.047,112.229 -217.879,111.995C-217.477,111.492 -218.214,110.888 -218.65,111.357C-219.523,112.33 -221.031,113.537 -222.44,114.342C-223.144,114.778 -223.815,115.08 -224.318,115.18C-224.888,115.348 -225.123,115.248 -225.19,115.18C-225.224,115.113 -225.291,114.979 -225.156,114.611C-225.079,114.326 -224.899,114 -224.668,113.666C-224.627,113.657 -224.584,113.648 -224.548,113.638C-224.29,113.573 -224.097,113.292 -224.172,113.031C-223.894,112.716 -223.585,112.419 -223.312,112.196C-222.91,111.861 -222.608,111.693 -222.474,111.659C-222.205,111.626 -222.037,111.357 -222.105,111.089C-222.172,110.787 -222.44,110.62 -222.708,110.687C-223.111,110.787 -223.547,111.089 -223.949,111.424C-224.385,111.793 -224.855,112.263 -225.224,112.732C-225.225,112.735 -225.227,112.737 -225.229,112.739C-225.636,112.783 -226.189,112.799 -226.795,112.799C-227.969,112.799 -229.344,112.732 -230.149,112.632L-230.283,112.632L-230.115,112.43C-228.74,110.452 -223.71,103.946 -222.536,102.604C-222.335,102.403 -222.369,102.068 -222.57,101.9C-222.771,101.733 -223.106,101.733 -223.274,101.934C-224.481,103.309 -229.545,109.848 -230.987,111.861L-231.248,112.273C-231.336,112.326 -231.438,112.387 -231.554,112.457L-231.658,112.43L-232.161,112.33C-232.689,112.183 -232.986,112.832 -232.693,113.132C-233.21,113.431 -233.799,113.761 -234.413,114.074C-235.016,114.409 -238.269,115.851 -240.181,115.851C-240.852,115.851 -241.354,115.65 -241.556,115.18C-241.656,114.879 -241.589,114.409 -241.321,113.873L-241.187,113.638C-239.845,114.309 -236.425,112.296 -235.988,111.391C-235.854,111.055 -235.922,110.653 -236.257,110.418L-236.525,110.284C-237.397,109.915 -238.537,110.251 -239.51,110.787C-240.483,111.324 -241.455,112.162 -242.025,113.101C-242.495,113.839 -242.763,114.745 -242.495,115.516C-242.159,116.455 -241.254,116.79 -240.147,116.79C-238.001,116.79 -235.117,115.549 -233.909,114.946C-233.429,114.7 -232.965,114.449 -232.54,114.211L-233.067,115.046C-233.737,116.119 -234.408,117.193 -235.011,118.299C-236.185,120.446 -237.192,122.558 -237.728,124.336C-238.03,125.275 -238.231,126.147 -238.231,126.952C-238.231,127.589 -238.097,128.159 -237.795,128.595C-237.762,128.628 -237.728,128.662 -237.694,128.662C-237.158,129.064 -236.521,128.997 -236.018,128.729C-235.481,128.461 -234.911,127.991 -234.374,127.388C-233.301,126.18 -232.161,124.369 -231.255,122.458C-230.417,120.513 -229.813,118.434 -229.78,116.589C-229.78,115.684 -229.914,114.811 -230.283,114.074L-230.585,113.604L-230.283,113.638C-229.411,113.738 -228.07,113.805 -226.862,113.805C-226.531,113.805 -226.214,113.801 -225.919,113.791C-226.002,113.954 -226.076,114.116 -226.129,114.275C-226.297,114.778 -226.364,115.415 -225.894,115.885C-225.626,116.186 -225.224,116.287 -224.821,116.287C-223.916,116.287 -222.809,115.751 -221.937,115.214C-221.568,115.013 -221.166,114.778 -220.797,114.51L-220.294,114.141L-220.294,114.208C-220.361,114.51 -220.361,114.811 -220.294,115.113C-220.059,115.818 -219.388,116.052 -218.785,116.052C-217.143,116.152 -215.077,115.181 -213.38,114.208C-213.394,114.297 -213.404,114.387 -213.404,114.476C-213.404,114.811 -213.303,115.147 -213.068,115.449C-213.035,115.516 -212.968,115.583 -212.901,115.65C-212.364,116.052 -211.492,115.851 -210.822,115.65C-210.05,115.382 -209.145,114.946 -208.273,114.476C-207.602,114.107 -206.965,113.705 -206.361,113.336L-206.227,113.269L-206.328,113.437L-208.038,115.985L-208.105,116.119L-209.379,116.723C-214.511,119.238 -219.608,122.592 -221.855,125.174C-222.894,126.382 -223.196,127.589 -222.894,128.528C-222.559,129.467 -221.654,130.003 -220.681,129.836C-217.328,129.232 -213.203,124.638 -209.983,120.412L-207.703,117.293L-207.434,116.891L-205.959,116.22C-204.406,115.562 -202.215,114.678 -200.548,114.133C-200.717,114.52 -200.789,114.923 -200.67,115.315C-200.436,116.019 -199.731,116.287 -198.859,116.287C-197.652,116.287 -196.21,115.818 -195.338,115.482C-194.514,115.16 -193.365,114.579 -192.397,114.057C-192.651,114.612 -192.808,115.195 -192.743,115.684C-192.71,116.254 -192.341,116.723 -191.603,116.824C-189.926,117.025 -188.115,115.315 -187.31,114.275C-186.941,113.805 -186.673,113.236 -186.506,112.699L-186.472,112.632C-185.801,112.833 -184.225,112.934 -182.381,112.934C-179.631,112.934 -176.31,112.732 -174.868,112.397C-174.634,112.33 -174.5,112.062 -174.567,111.793C-174.667,111.559 -174.969,111.424 -175.237,111.492M-194.533,108.507C-194.399,108.741 -194.097,108.842 -193.862,108.741C-193.628,108.607 -193.36,108.406 -193.125,108.239C-192.89,108.071 -192.689,107.87 -192.554,107.735C-192.353,107.568 -192.32,107.232 -192.521,107.031C-192.689,106.83 -193.024,106.797 -193.225,106.998L-193.762,107.467C-193.963,107.601 -194.164,107.769 -194.298,107.836C-194.567,107.937 -194.667,108.272 -194.533,108.507M-242.99,110.653C-244.6,110.351 -248.323,111.961 -249.832,112.732L-248.725,111.424C-248.557,111.223 -248.591,110.888 -248.792,110.72C-248.993,110.553 -249.329,110.553 -249.496,110.787C-253.386,115.013 -253.99,115.885 -254.091,116.186C-254.325,116.69 -253.621,117.126 -253.253,116.69C-252.313,115.717 -251.945,115.248 -251.609,115.013C-249.698,113.671 -246.31,111.827 -243.728,111.559L-243.594,111.559L-243.695,111.659C-244.198,112.397 -243.091,112.397 -242.622,111.793C-242.32,111.424 -242.353,110.787 -242.99,110.653M-263.42,114.577C-264.762,114.912 -269.826,115.18 -272.576,115.113C-274.253,115.113 -275.762,115.147 -275.762,114.174C-275.762,113.772 -275.493,113.202 -274.89,112.363C-274.588,111.961 -274.621,111.29 -275.292,111.19C-276.968,110.993 -280.154,112.147 -281.859,112.982C-281.848,112.951 -281.84,112.919 -281.836,112.886L-281.027,111.961C-280.859,111.76 -280.893,111.424 -281.094,111.257C-281.295,111.089 -281.631,111.089 -281.798,111.324L-282.903,112.581C-284.716,113.66 -286.846,114.985 -289.066,115.08C-289.267,115.046 -289.569,115.013 -289.636,114.811C-289.703,114.543 -289.569,114.04 -289.166,113.37C-288.797,112.766 -288.361,112.229 -288.194,111.995C-287.791,111.492 -288.529,110.888 -288.965,111.357C-289.837,112.33 -291.346,113.537 -292.755,114.342C-293.459,114.778 -294.13,115.08 -294.633,115.18C-295.203,115.348 -295.437,115.248 -295.505,115.18C-295.538,115.113 -295.605,114.979 -295.471,114.611C-295.371,114.242 -295.102,113.805 -294.767,113.37C-294.431,112.934 -293.996,112.498 -293.627,112.196C-293.224,111.861 -292.922,111.693 -292.788,111.659C-292.52,111.626 -292.352,111.357 -292.419,111.089C-292.486,110.787 -292.755,110.62 -293.023,110.687C-293.425,110.787 -293.861,111.089 -294.264,111.424C-294.7,111.793 -295.169,112.263 -295.538,112.732C-295.94,113.236 -296.276,113.772 -296.444,114.275C-296.611,114.778 -296.678,115.415 -296.209,115.885C-295.94,116.186 -295.538,116.287 -295.136,116.287C-294.23,116.287 -293.124,115.751 -292.252,115.214C-291.883,115.013 -291.48,114.778 -291.111,114.51L-290.608,114.141L-290.608,114.208C-290.676,114.51 -290.676,114.811 -290.608,115.113C-290.374,115.818 -289.703,116.052 -289.099,116.052C-287.84,116.129 -286.331,115.575 -284.93,114.874C-285.196,115.175 -285.359,115.435 -285.521,115.65C-285.856,116.186 -285.051,116.589 -284.682,116.153L-284.012,115.382C-282.268,114.007 -278.646,112.33 -275.929,112.062C-276.332,112.632 -276.835,113.537 -276.835,114.376C-276.835,114.979 -276.567,115.516 -275.728,115.885C-275.158,116.119 -273.951,116.119 -272.576,116.119L-271.502,116.119C-268.585,116.119 -264.628,115.918 -263.186,115.549C-262.917,115.482 -262.75,115.214 -262.817,114.946C-262.85,114.677 -263.152,114.51 -263.42,114.577" style="fill:rgb(26,26,26);fill-rule:nonzero;"/>
    </g>
</svg>
